<?xml version="1.0" encoding="UTF-8" standalone="no"?>
<!-- Created with Inkscape (http://www.inkscape.org/) -->

<svg
   width="129"
   height="63"
   viewBox="0 0 129 63.000002"
   version="1.1"
   id="svg17788"
   inkscape:version="1.3 (0e150ed6c4, 2023-07-21)"
   sodipodi:docname="background.svg"
   xmlns:inkscape="http://www.inkscape.org/namespaces/inkscape"
   xmlns:sodipodi="http://sodipodi.sourceforge.net/DTD/sodipodi-0.dtd"
   xmlns:xlink="http://www.w3.org/1999/xlink"
   xmlns="http://www.w3.org/2000/svg"
   xmlns:svg="http://www.w3.org/2000/svg">
  <sodipodi:namedview
     id="namedview17790"
     pagecolor="#d1d1d1"
     bordercolor="#6b6b6b"
     borderopacity="1"
     inkscape:showpageshadow="0"
     inkscape:pageopacity="0"
     inkscape:pagecheckerboard="1"
     inkscape:deskcolor="#d1d1d1"
     inkscape:document-units="px"
     showgrid="true"
     shape-rendering="crispEdges"
     inkscape:zoom="4.9036352"
     inkscape:cx="55.163157"
     inkscape:cy="11.82796"
     inkscape:current-layer="layer1">
    <inkscape:grid
       type="xygrid"
       id="grid1373"
       originx="-93"
       originy="-99"
       spacingy="1"
       spacingx="1"
       units="px"
       visible="true" />
  </sodipodi:namedview>
  <defs
     id="defs17785">
    <linearGradient
       inkscape:collect="always"
       id="linearGradient13075">
      <stop
         style="stop-color:#000000;stop-opacity:0.34;"
         offset="0"
         id="stop13071" />
      <stop
         style="stop-color:#000000;stop-opacity:0;"
         offset="1"
         id="stop13073" />
    </linearGradient>
    <linearGradient
       inkscape:collect="always"
       id="linearGradient12979">
      <stop
         style="stop-color:#000000;stop-opacity:0.2;"
         offset="0"
         id="stop12975" />
      <stop
         style="stop-color:#000000;stop-opacity:0;"
         offset="1"
         id="stop12977" />
    </linearGradient>
    <linearGradient
       inkscape:collect="always"
       id="linearGradient11502">
      <stop
         style="stop-color:#343443;stop-opacity:1;"
         offset="0"
         id="stop11498" />
      <stop
         style="stop-color:#282535;stop-opacity:1"
         offset="1"
         id="stop11500" />
    </linearGradient>
    <linearGradient
       inkscape:collect="always"
       xlink:href="#linearGradient12979"
       id="linearGradient3353"
       x1="190"
       y1="123"
       x2="190"
       y2="113"
       gradientUnits="userSpaceOnUse" />
    <linearGradient
       inkscape:collect="always"
       xlink:href="#linearGradient12979"
       id="linearGradient3485"
       x1="190"
       y1="123"
       x2="190"
       y2="113"
       gradientUnits="userSpaceOnUse" />
    <linearGradient
       inkscape:collect="always"
       xlink:href="#linearGradient12979"
       id="linearGradient3493"
       x1="190"
       y1="123"
       x2="190"
       y2="113"
       gradientUnits="userSpaceOnUse" />
    <linearGradient
       inkscape:collect="always"
       xlink:href="#linearGradient12979"
       id="linearGradient3501"
       x1="191"
       y1="123"
       x2="191"
       y2="113"
       gradientUnits="userSpaceOnUse" />
    <radialGradient
       inkscape:collect="always"
       xlink:href="#linearGradient13075"
       id="radialGradient3573"
       cx="205"
       cy="-130"
       fx="205"
       fy="-130"
       r="8.5"
       gradientUnits="userSpaceOnUse"
       gradientTransform="matrix(0,2,-2,0,-55,-540)" />
    <radialGradient
       inkscape:collect="always"
       xlink:href="#linearGradient13075"
       id="radialGradient3581"
       cx="190"
       cy="130"
       fx="190"
       fy="130"
       r="8.5"
       gradientUnits="userSpaceOnUse"
       gradientTransform="matrix(0,-2,2,0,-70,510)" />
    <radialGradient
       inkscape:collect="always"
       xlink:href="#linearGradient13075"
       id="radialGradient3589"
       cx="205"
       cy="145"
       fx="205"
       fy="145"
       r="8.5"
       gradientUnits="userSpaceOnUse"
       gradientTransform="matrix(0,2,-2,0,495,-265)" />
    <radialGradient
       inkscape:collect="always"
       xlink:href="#linearGradient13075"
       id="radialGradient3597"
       cx="190"
       cy="145"
       fx="190"
       fy="145"
       r="8.5"
       gradientUnits="userSpaceOnUse"
       gradientTransform="matrix(-2,0,0,-2,570,435)" />
    <linearGradient
       inkscape:collect="always"
       xlink:href="#linearGradient11502"
       id="linearGradient11504"
       x1="115"
       y1="124"
       x2="121"
       y2="130"
       gradientUnits="userSpaceOnUse" />
    <linearGradient
       inkscape:collect="always"
       xlink:href="#linearGradient11502"
       id="linearGradient12050"
       gradientUnits="userSpaceOnUse"
       x1="121"
       y1="130"
       x2="115"
       y2="124" />
  </defs>
  <g
     inkscape:label="Layer 1"
     inkscape:groupmode="layer"
     id="layer1"
     transform="translate(-93,-99)">
    <rect
       style="opacity:1;fill:#2e2a3b;fill-opacity:1;stroke:none;stroke-width:2;stroke-linecap:round"
       id="center"
       width="15"
       height="15"
       x="100"
       y="130" />
    <rect
       style="opacity:0.5;fill:#008080;stroke:none;stroke-width:2;stroke-linecap:round"
       id="hint-top-margin"
       width="1"
       height="5"
       x="124"
       y="104"
       rx="0.028995324"
       ry="0.12366348" />
    <rect
       style="opacity:0.5;fill:#008080;stroke:none;stroke-width:2;stroke-linecap:round"
       id="hint-bottom-margin"
       width="1"
       height="5"
       x="124"
       y="110"
       rx="0.028995324"
       ry="0.12366348" />
    <rect
       style="opacity:0.5;fill:#008080;stroke:none;stroke-width:2;stroke-linecap:round"
       id="hint-right-margin"
       width="5"
       height="1"
       x="125"
       y="109"
       rx="0.14497662"
       ry="0.024732696" />
    <rect
       style="opacity:0.5;fill:#008080;stroke:none;stroke-width:2;stroke-linecap:round"
       id="hint-left-margin"
       width="5"
       height="1"
       x="119"
       y="109"
       rx="0.14497662"
       ry="0.024732696" />
    <rect
       style="opacity:0.9;fill:#333333;fill-opacity:1;stroke:none;stroke-width:2;stroke-linecap:round"
       id="mask-center"
       width="15"
       height="15"
       x="135"
       y="130" />
    <rect
       style="opacity:0.9;fill:#333333;fill-opacity:1;stroke:none;stroke-width:2;stroke-linecap:round"
       id="mask-left"
       width="7"
       height="15"
       x="128"
       y="130" />
    <rect
       style="opacity:0.9;fill:#333333;fill-opacity:1;stroke:none;stroke-width:2;stroke-linecap:round"
       id="mask-right"
       width="7"
       height="15"
       x="150"
       y="130" />
    <rect
       style="opacity:0.9;fill:#333333;fill-opacity:1;stroke:none;stroke-width:2;stroke-linecap:round"
       id="mask-top"
       width="15"
       height="7"
       x="135"
       y="123" />
    <rect
       style="opacity:0.9;fill:#333333;fill-opacity:1;stroke:none;stroke-width:2;stroke-linecap:round"
       id="mask-bottom"
       width="15"
       height="7"
       x="135"
       y="145" />
    <path
       style="opacity:0.9;fill:#333333;fill-opacity:1;stroke-width:1.99999;stroke-linecap:round"
       id="mask-bottomright"
       sodipodi:type="arc"
       sodipodi:cx="150"
       sodipodi:cy="145"
       sodipodi:rx="7"
       sodipodi:ry="7"
       sodipodi:start="0"
       sodipodi:end="1.5707963"
       sodipodi:arc-type="slice"
       d="m 157,145 a 7,7 0 0 1 -7,7 v -7 z" />
    <path
       style="opacity:0.9;fill:#333333;fill-opacity:1;stroke-width:1.99999;stroke-linecap:round"
       id="mask-bottomleft"
       sodipodi:type="arc"
       sodipodi:cx="-135"
       sodipodi:cy="145"
       sodipodi:rx="7"
       sodipodi:ry="7"
       sodipodi:start="0"
       sodipodi:end="1.5707963"
       sodipodi:arc-type="slice"
       d="m -128,145 a 7,7 0 0 1 -7,7 v -7 z"
       transform="scale(-1,1)" />
    <path
       style="opacity:0.9;fill:#333333;fill-opacity:1;stroke-width:1.99999;stroke-linecap:round"
       id="mask-topright"
       sodipodi:type="arc"
       sodipodi:cx="150"
       sodipodi:cy="-130"
       sodipodi:rx="7"
       sodipodi:ry="7"
       sodipodi:start="0"
       sodipodi:end="1.5707963"
       sodipodi:arc-type="slice"
       d="m 157,-130 a 7,7 0 0 1 -7,7 v -7 z"
       transform="scale(1,-1)" />
    <path
       style="opacity:0.9;fill:#333333;fill-opacity:1;stroke-width:1.99999;stroke-linecap:round"
       id="mask-topleft"
       sodipodi:type="arc"
       sodipodi:cx="-135"
       sodipodi:cy="-130"
       sodipodi:rx="7"
       sodipodi:ry="7"
       sodipodi:start="0"
       sodipodi:end="1.5707963"
       sodipodi:arc-type="slice"
       d="m -128,-130 a 7,7 0 0 1 -7,7 v -7 z"
       transform="scale(-1)" />
    <rect
       style="opacity:0.9;fill:none;fill-opacity:1;stroke:none;stroke-width:2;stroke-linecap:round"
       id="shadow-center"
       width="15"
       height="15"
       x="190"
       y="130" />
    <path
       id="shadow-topright"
       style="opacity:0.9;fill:url(#radialGradient3573);fill-opacity:1;stroke-width:1.99999;stroke-linecap:round"
       d="m 205,-113 v -10 a 7,7 0 0 0 7,-7 h 10 a 17,17 0 0 1 -17,17 z"
       transform="scale(1,-1)" />
    <g
       id="shadow-top">
      <rect
         style="opacity:0.9;fill:none;fill-opacity:1;stroke:none;stroke-width:2;stroke-linecap:round"
         id="rect2821"
         width="15"
         height="7"
         x="190"
         y="123" />
      <rect
         style="opacity:0.9;fill:url(#linearGradient3353);fill-opacity:1;stroke:none;stroke-width:2;stroke-linecap:round"
         id="rect2833"
         width="15"
         height="10"
         x="190"
         y="113" />
    </g>
    <g
       id="shadow-bottom"
       transform="matrix(1,0,0,-1,0,275)">
      <rect
         style="opacity:0.9;fill:none;fill-opacity:1;stroke:none;stroke-width:2;stroke-linecap:round"
         id="rect2839"
         width="15"
         height="7"
         x="190"
         y="123" />
      <rect
         style="opacity:0.9;fill:url(#linearGradient3501);fill-opacity:1;stroke:none;stroke-width:2;stroke-linecap:round"
         id="rect2841"
         width="15"
         height="10"
         x="190"
         y="113" />
    </g>
    <g
       id="shadow-right"
       transform="rotate(90,197.5,137.5)">
      <rect
         style="opacity:0.9;fill:none;fill-opacity:1;stroke:none;stroke-width:2;stroke-linecap:round"
         id="rect2845"
         width="15"
         height="7"
         x="190"
         y="123" />
      <rect
         style="opacity:0.9;fill:url(#linearGradient3485);fill-opacity:1;stroke:none;stroke-width:2;stroke-linecap:round"
         id="rect2847"
         width="15"
         height="10"
         x="190"
         y="113" />
    </g>
    <g
       id="shadow-left"
       transform="rotate(-90,197.5,137.5)">
      <rect
         style="opacity:0.9;fill:none;fill-opacity:1;stroke:none;stroke-width:2;stroke-linecap:round"
         id="rect2851"
         width="15"
         height="7"
         x="190"
         y="123" />
      <rect
         style="opacity:0.9;fill:url(#linearGradient3493);fill-opacity:1;stroke:none;stroke-width:2;stroke-linecap:round"
         id="rect2853"
         width="15"
         height="10"
         x="190"
         y="113" />
    </g>
    <path
       id="shadow-topleft"
       style="opacity:0.9;fill:url(#radialGradient3581);fill-opacity:1;stroke-width:1.99999;stroke-linecap:round"
       d="m 190,113 v 10 a 7,7 0 0 0 -7,7 h -10 a 17,17 0 0 1 17,-17 z" />
    <path
       id="shadow-bottomright"
       style="opacity:0.9;fill:url(#radialGradient3589);fill-opacity:1;stroke-width:1.99999;stroke-linecap:round"
       d="m 205,162 v -10 a 7,7 0 0 0 7,-7 h 10 a 17,17 0 0 1 -17,17 z" />
    <path
       id="shadow-bottomleft"
       style="opacity:0.9;fill:url(#radialGradient3597);fill-opacity:1;stroke-width:1.99999;stroke-linecap:round"
       d="m 190,162 v -10 a 7,7 0 0 1 -7,-7 h -10 a 17,17 0 0 0 17,17 z" />
    <rect
       style="opacity:0.5;fill:#008080;stroke:none;stroke-width:2;stroke-linecap:round"
       id="shadow-hint-top-margin"
       width="1"
       height="10"
       x="145"
       y="99"
       rx="0.028995324"
       ry="0.24732694" />
    <rect
       style="opacity:0.5;fill:#008080;stroke:none;stroke-width:2;stroke-linecap:round"
       id="shadow-hint-bottom-margin"
       width="1"
       height="10"
       x="145"
       y="110"
       rx="0.028995324"
       ry="0.24732694" />
    <rect
       style="opacity:0.5;fill:#008080;stroke:none;stroke-width:2;stroke-linecap:round"
       id="shadow-hint-right-margin"
       width="10"
       height="1"
       x="146"
       y="109"
       rx="0.28995323"
       ry="0.024732694" />
    <rect
       style="opacity:0.5;fill:#008080;stroke:none;stroke-width:2;stroke-linecap:round"
       id="shadow-hint-left-margin"
       width="10"
       height="1"
       x="135"
       y="109"
       rx="0.28995323"
       ry="0.024732694" />
    <g
       id="top">
      <rect
         style="opacity:1;fill:#2e2a3b;fill-opacity:1;stroke:none;stroke-width:2;stroke-linecap:round"
         id="rect2325"
         width="15"
         height="7"
         x="100"
         y="123" />
      <rect
         style="opacity:1;fill:#343443;fill-opacity:1;stroke:none;stroke-width:2;stroke-linecap:round"
         id="rect2319"
         width="15"
         height="1"
         x="100"
         y="123" />
    </g>
    <use
       x="0"
       y="0"
       xlink:href="#top"
       id="left"
       transform="rotate(-90,107.5,137.5)"
       style="fill:#3f3d4a;fill-opacity:1" />
    <g
       id="topright">
      <path
         style="opacity:1;fill:#2e2a3b;fill-opacity:1;stroke-width:1.99999;stroke-linecap:round"
         id="path3056"
         sodipodi:type="arc"
         sodipodi:cx="115"
         sodipodi:cy="-130"
         sodipodi:rx="7"
         sodipodi:ry="7"
         sodipodi:start="0"
         sodipodi:end="1.5707963"
         sodipodi:arc-type="slice"
         d="m 122,-130 a 7,7 0 0 1 -7,7 v -7 z"
         transform="scale(1,-1)" />
      <path
         id="path2909"
         style="opacity:1;fill:url(#linearGradient11504);fill-opacity:1;stroke-width:1.99999;stroke-linecap:round"
         d="m 115,123 v 1 a 6,6 0 0 1 6,6 h 1 a 7,7 0 0 0 -7,-7 z" />
    </g>
    <g
       id="right"
       transform="rotate(90,107.5,137.5)">
      <rect
         style="opacity:1;fill:#2e2a3b;fill-opacity:1;stroke:none;stroke-width:2;stroke-linecap:round"
         id="rect9513"
         width="15"
         height="7"
         x="100"
         y="123" />
      <rect
         style="opacity:1;fill:#282535;fill-opacity:1;stroke:none;stroke-width:2;stroke-linecap:round"
         id="rect9515"
         width="15"
         height="1"
         x="100"
         y="123" />
    </g>
    <use
       x="0"
       y="0"
       xlink:href="#right"
       id="bottom"
       transform="rotate(90,107.5,137.5)" />
    <g
       id="bottomright"
       transform="matrix(1,0,0,-1,0,275)">
      <path
         style="opacity:1;fill:#2e2a3b;fill-opacity:1;stroke-width:1.99999;stroke-linecap:round"
         id="path11049"
         sodipodi:type="arc"
         sodipodi:cx="115"
         sodipodi:cy="-130"
         sodipodi:rx="7"
         sodipodi:ry="7"
         sodipodi:start="0"
         sodipodi:end="1.5707963"
         sodipodi:arc-type="slice"
         d="m 122,-130 a 7,7 0 0 1 -7,7 v -7 z"
         transform="scale(1,-1)" />
      <path
         id="path11051"
         style="opacity:1;fill:#282535;fill-opacity:1;stroke-width:1.99999;stroke-linecap:round"
         d="m 115,123 v 1 a 6,6 0 0 1 6,6 h 1 a 7,7 0 0 0 -7,-7 z" />
    </g>
    <g
       id="topleft"
       transform="matrix(-1,0,0,1,215,0)">
      <path
         style="opacity:1;fill:#2e2a3b;fill-opacity:1;stroke-width:1.99999;stroke-linecap:round"
         id="path11400"
         sodipodi:type="arc"
         sodipodi:cx="115"
         sodipodi:cy="-130"
         sodipodi:rx="7"
         sodipodi:ry="7"
         sodipodi:start="0"
         sodipodi:end="1.5707963"
         sodipodi:arc-type="slice"
         d="m 122,-130 a 7,7 0 0 1 -7,7 v -7 z"
         transform="scale(1,-1)" />
      <path
         id="path11402"
         style="opacity:1;fill:#343443;fill-opacity:1;stroke-width:1.99999;stroke-linecap:round"
         d="m 115,123 v 1 a 6,6 0 0 1 6,6 h 1 a 7,7 0 0 0 -7,-7 z" />
    </g>
    <g
       id="bottomleft"
       transform="rotate(180,107.5,137.5)">
      <path
         style="opacity:1;fill:#2e2a3b;fill-opacity:1;stroke-width:1.99999;stroke-linecap:round"
         id="path12044"
         sodipodi:type="arc"
         sodipodi:cx="115"
         sodipodi:cy="-130"
         sodipodi:rx="7"
         sodipodi:ry="7"
         sodipodi:start="0"
         sodipodi:end="1.5707963"
         sodipodi:arc-type="slice"
         d="m 122,-130 a 7,7 0 0 1 -7,7 v -7 z"
         transform="scale(1,-1)" />
      <path
         id="path12046"
         style="opacity:1;fill:url(#linearGradient12050);fill-opacity:1;stroke-width:1.99999;stroke-linecap:round"
         d="m 115,123 v 1 a 6,6 0 0 1 6,6 h 1 a 7,7 0 0 0 -7,-7 z" />
    </g>
  </g>
</svg>
