<?xml version="1.0" encoding="UTF-8" standalone="no"?>
<!-- Created with Inkscape (http://www.inkscape.org/) -->

<svg
   width="72"
   height="48"
   viewBox="0 0 72 48.000002"
   version="1.1"
   id="svg17788"
   inkscape:version="1.2.2 (b0a8486541, 2022-12-01)"
   sodipodi:docname="start.svg"
   xmlns:inkscape="http://www.inkscape.org/namespaces/inkscape"
   xmlns:sodipodi="http://sodipodi.sourceforge.net/DTD/sodipodi-0.dtd"
   xmlns="http://www.w3.org/2000/svg"
   xmlns:svg="http://www.w3.org/2000/svg">
  <sodipodi:namedview
     id="namedview17790"
     pagecolor="#d1d1d1"
     bordercolor="#6b6b6b"
     borderopacity="1"
     inkscape:showpageshadow="0"
     inkscape:pageopacity="0"
     inkscape:pagecheckerboard="1"
     inkscape:deskcolor="#d1d1d1"
     inkscape:document-units="px"
     showgrid="true"
     shape-rendering="crispEdges"
     inkscape:zoom="9.5144355"
     inkscape:cx="50.764967"
     inkscape:cy="31.005518"
     inkscape:current-layer="layer1"
     showguides="true">
    <inkscape:grid
       type="xygrid"
       id="grid1518"
       originx="-505"
       originy="-880.00004" />
  </sodipodi:namedview>
  <defs
     id="defs17785" />
  <g
     inkscape:label="Layer 1"
     inkscape:groupmode="layer"
     id="layer1"
     transform="translate(-505,-880)">
    <g
       id="22-22-start-here-kde"
       transform="translate(-32,2)">
      <rect
         style="opacity:0.15;fill:none;fill-opacity:1;stroke:none;stroke-width:5;stroke-linecap:round;stroke-linejoin:round"
         id="rect2498"
         width="22"
         height="22"
         x="587"
         y="878"
         ry="2"
         rx="2" />
      <path
         sodipodi:type="star"
         style="opacity:0.75;fill:#f8f6ff;fill-opacity:1;stroke:#f8f8f8;stroke-width:10.65213291;stroke-linecap:round;stroke-linejoin:round;stroke-dasharray:none;stroke-opacity:1"
         id="path2331"
         inkscape:flatsided="false"
         sodipodi:sides="3"
         sodipodi:cx="575"
         sodipodi:cy="925"
         sodipodi:r1="19.026299"
         sodipodi:r2="9.5131493"
         sodipodi:arg1="0"
         sodipodi:arg2="1.0471976"
         inkscape:rounded="0"
         inkscape:randomized="0"
         d="m 594.0263,925 -14.26973,8.23863 -14.26972,8.23863 V 925 908.52274 l 14.26973,8.23863 z"
         inkscape:transform-center-x="-1.0939533"
         transform="matrix(0.22998795,0,0,0.23949794,465.38111,667.38287)"
         inkscape:transform-center-y="5.8000002e-06" />
    </g>
    <g
       id="start-here-kde">
      <rect
         style="fill:none;stroke-width:2;stroke-linecap:round"
         id="rect1524"
         width="48"
         height="48"
         x="505"
         y="880" />
      <circle
         style="opacity:0.2;fill:#f4f0ff;fill-opacity:1;stroke-width:0.999999;stroke-linecap:square"
         id="path970"
         cx="529"
         cy="904"
         r="21" />
      <path
         style="opacity:0.8;fill:none;stroke:#f8f8f8;stroke-width:5;stroke-linecap:round;stroke-linejoin:round;stroke-dasharray:none;stroke-opacity:1"
         d="M 524.70631,911.90002 537.35717,904.00001 524.70631,896.1"
         id="path1667" />
      <path
         id="circle801"
         style="opacity:0.25;fill:#ffffff;fill-opacity:1;stroke-width:0.999999;stroke-linecap:square"
         d="m 529,882.99996 a 21,21 0 0 0 -21,21 21,21 0 0 0 6.12891,14.75195 A 21,21 0 0 1 509,904.99996 a 21,21 0 0 1 21,-21 21,21 0 0 1 14.33789,5.66211 A 21,21 0 0 0 529,882.99996 Z" />
      <path
         id="path854"
         style="opacity:0.3;fill:#000000;fill-opacity:1;stroke-width:0.999999;stroke-linecap:square"
         d="m 530,925.99996 a 21,21 0 0 0 21,-21 21,21 0 0 0 -6.12891,-14.75195 21,21 0 0 1 5.12891,13.75195 21,21 0 0 1 -21,21 21,21 0 0 1 -14.33789,-5.66211 A 21,21 0 0 0 530,925.99996 Z" />
    </g>
  </g>
</svg>
