<?xml version="1.0" encoding="UTF-8" standalone="no"?>
<!-- Created with Inkscape (http://www.inkscape.org/) -->

<svg
   width="72"
   height="48"
   viewBox="0 0 72 48.000002"
   version="1.1"
   id="svg17788"
   inkscape:version="1.2.2 (b0a8486541, 2022-12-01)"
   sodipodi:docname="start.svg"
   xmlns:inkscape="http://www.inkscape.org/namespaces/inkscape"
   xmlns:sodipodi="http://sodipodi.sourceforge.net/DTD/sodipodi-0.dtd"
   xmlns="http://www.w3.org/2000/svg"
   xmlns:svg="http://www.w3.org/2000/svg">
  <sodipodi:namedview
     id="namedview17790"
     pagecolor="#d1d1d1"
     bordercolor="#6b6b6b"
     borderopacity="1"
     inkscape:showpageshadow="0"
     inkscape:pageopacity="0"
     inkscape:pagecheckerboard="1"
     inkscape:deskcolor="#d1d1d1"
     inkscape:document-units="px"
     showgrid="true"
     shape-rendering="crispEdges"
     inkscape:zoom="9.5144355"
     inkscape:cx="81.350071"
     inkscape:cy="21.966621"
     inkscape:current-layer="layer1"
     showguides="true">
    <inkscape:grid
       type="xygrid"
       id="grid1518"
       originx="-505"
       originy="-880.00004" />
  </sodipodi:namedview>
  <defs
     id="defs17785" />
  <g
     inkscape:label="Layer 1"
     inkscape:groupmode="layer"
     id="layer1"
     transform="translate(-505,-880)">
    <g
       id="start-here-kde">
      <rect
         style="fill:none;stroke-width:2;stroke-linecap:round"
         id="rect1524"
         width="48"
         height="48"
         x="505"
         y="880" />
      <circle
         style="opacity:0.2;fill:#f4f0ff;fill-opacity:1;stroke-width:0.999999;stroke-linecap:square"
         id="path970"
         cx="529"
         cy="904"
         r="21" />
      <path
         style="opacity:0.8;fill:none;stroke:#f8f8f8;stroke-width:5;stroke-linecap:round;stroke-linejoin:round;stroke-dasharray:none;stroke-opacity:1"
         d="M 523.60631,911.90002 536.25717,904.00001 523.60631,896.1"
         id="path1667" />
      <path
         id="circle801"
         style="opacity:0.25;fill:#ffffff;fill-opacity:1;stroke-width:0.999999;stroke-linecap:square"
         d="m 529,882.99996 a 21,21 0 0 0 -21,21 21,21 0 0 0 6.12891,14.75195 A 21,21 0 0 1 509,904.99996 a 21,21 0 0 1 21,-21 21,21 0 0 1 14.33789,5.66211 A 21,21 0 0 0 529,882.99996 Z" />
      <path
         id="path854"
         style="opacity:0.3;fill:#000000;fill-opacity:1;stroke-width:0.999999;stroke-linecap:square"
         d="m 530,925.99996 a 21,21 0 0 0 21,-21 21,21 0 0 0 -6.12891,-14.75195 21,21 0 0 1 5.12891,13.75195 21,21 0 0 1 -21,21 21,21 0 0 1 -14.33789,-5.66211 A 21,21 0 0 0 530,925.99996 Z" />
    </g>
    <g
       id="22-22-start-here-kde"
       transform="translate(428.02314,761.49996)">
      <rect
         style="opacity:0.8;fill:none;stroke-width:0.999998;stroke-linecap:round;stroke-linejoin:round"
         id="rect14531"
         width="21.999998"
         height="21.999998"
         x="126.99999"
         y="118.99999"
         rx="0.18595946"
         ry="0.29837874" />
      <path
         sodipodi:type="star"
         style="opacity:0.9;fill:#f8f8f8;fill-opacity:1;stroke-width:1.4197;stroke-linecap:round;stroke-linejoin:round"
         id="path16081"
         inkscape:flatsided="false"
         sodipodi:sides="3"
         sodipodi:cx="133"
         sodipodi:cy="128"
         sodipodi:r1="8.0622578"
         sodipodi:r2="4.0311289"
         sodipodi:arg1="-0.51914611"
         sodipodi:arg2="0.52805144"
         inkscape:rounded="0"
         inkscape:randomized="0"
         d="m 140,124 -3.51795,6.03109 -3.51795,6.03109 L 129.5,130 l -3.4641,-6.06218 6.98205,0.0311 z"
         inkscape:transform-center-x="-0.015424757"
         inkscape:transform-center-y="1.1546999"
         transform="matrix(0.85934635,0,0,0.57735029,23.69151,55.444463)" />
    </g>
  </g>
</svg>
