<?xml version="1.0" encoding="UTF-8" standalone="no"?>
<!-- Created with Inkscape (http://www.inkscape.org/) -->

<svg
   width="97"
   height="43"
   viewBox="0 0 97.000001 43.000002"
   version="1.1"
   id="svg17788"
   inkscape:version="1.3 (0e150ed6c4, 2023-07-21)"
   sodipodi:docname="button.svg"
   xmlns:inkscape="http://www.inkscape.org/namespaces/inkscape"
   xmlns:sodipodi="http://sodipodi.sourceforge.net/DTD/sodipodi-0.dtd"
   xmlns:xlink="http://www.w3.org/1999/xlink"
   xmlns="http://www.w3.org/2000/svg"
   xmlns:svg="http://www.w3.org/2000/svg">
  <sodipodi:namedview
     id="namedview17790"
     pagecolor="#d1d1d1"
     bordercolor="#6b6b6b"
     borderopacity="1"
     inkscape:showpageshadow="0"
     inkscape:pageopacity="0"
     inkscape:pagecheckerboard="1"
     inkscape:deskcolor="#d1d1d1"
     inkscape:document-units="px"
     showgrid="true"
     shape-rendering="crispEdges"
     inkscape:zoom="38.057743"
     inkscape:cx="51.356172"
     inkscape:cy="25.908"
     inkscape:current-layer="layer1">
    <inkscape:grid
       type="xygrid"
       id="grid3208"
       originx="-448"
       originy="513.00002"
       spacingy="1"
       spacingx="1"
       units="px"
       visible="true" />
  </sodipodi:namedview>
  <defs
     id="defs17785">
    <linearGradient
       inkscape:collect="always"
       xlink:href="#linearGradient3436"
       id="linearGradient8986"
       gradientUnits="userSpaceOnUse"
       x1="265"
       y1="616"
       x2="269"
       y2="620"
       gradientTransform="translate(170.00001,-140.00001)" />
    <linearGradient
       inkscape:collect="always"
       id="linearGradient3436">
      <stop
         style="stop-color:#494949;stop-opacity:1"
         offset="0"
         id="stop9356" />
      <stop
         style="stop-color:#383838;stop-opacity:1"
         offset="1"
         id="stop9358" />
    </linearGradient>
    <linearGradient
       inkscape:collect="always"
       xlink:href="#linearGradient3436"
       id="linearGradient8984"
       gradientUnits="userSpaceOnUse"
       x1="269"
       y1="620"
       x2="265"
       y2="616"
       gradientTransform="rotate(180,342.5,557.5)" />
    <linearGradient
       inkscape:collect="always"
       xlink:href="#linearGradient3436"
       id="linearGradient4179"
       gradientUnits="userSpaceOnUse"
       gradientTransform="translate(170.00001,-140.00001)"
       x1="265"
       y1="616"
       x2="269"
       y2="620" />
    <linearGradient
       inkscape:collect="always"
       xlink:href="#linearGradient3436"
       id="linearGradient4177"
       gradientUnits="userSpaceOnUse"
       gradientTransform="rotate(180,342.5,557.5)"
       x1="269"
       y1="620"
       x2="265"
       y2="616" />
  </defs>
  <g
     inkscape:label="Layer 1"
     inkscape:groupmode="layer"
     id="layer1"
     transform="translate(-448,513)">
    <path
       id="normal-hint-top-margin"
       d="m 460,-513 h 1 v 5 h -1 z"
       style="fill:#008080;fill-rule:evenodd;stroke-width:0.999995" />
    <path
       id="normal-hint-bottom-margin"
       d="m 460,-505 h 1 v 5 h -1 z"
       style="fill:#008080;fill-rule:evenodd;stroke-width:0.999995" />
    <path
       id="normal-hint-left-margin"
       d="m 454,-507 h 5 v 1 h -5 z"
       style="fill:#008080;fill-rule:evenodd;stroke-width:0.999997" />
    <rect
       style="fill:#3a3a3a;fill-opacity:1;stroke:none;stroke-width:0.5;stroke-linecap:round"
       id="normal-center"
       width="15"
       height="15"
       x="453"
       y="-490" />
    <g
       id="normal-topright"
       transform="translate(33,-970)">
      <path
         style="fill:#3a3a3a;fill-opacity:1;stroke:none;stroke-width:0.500001;stroke-linecap:round"
         id="path8942"
         sodipodi:type="arc"
         sodipodi:cx="435"
         sodipodi:cy="-480"
         sodipodi:rx="5"
         sodipodi:ry="5"
         sodipodi:start="0"
         sodipodi:end="1.5707963"
         sodipodi:arc-type="slice"
         d="m 440,-480 a 5,5 0 0 1 -5,5 v -5 z"
         transform="scale(1,-1)" />
      <path
         id="path8944"
         style="fill:url(#linearGradient8986);fill-opacity:1;stroke:none;stroke-width:0.500001;stroke-linecap:round"
         d="m 435.00001,474.99999 v 1 a 4,4 0 0 1 4,4 h 1 a 5,5 0 0 0 -5,-5 z" />
    </g>
    <g
       id="normal-topleft"
       transform="translate(33,-970)">
      <path
         style="fill:#3a3a3a;fill-opacity:1;stroke:none;stroke-width:0.500001;stroke-linecap:round"
         id="path8948"
         sodipodi:type="arc"
         sodipodi:cx="-420"
         sodipodi:cy="-480"
         sodipodi:rx="5"
         sodipodi:ry="5"
         sodipodi:start="0"
         sodipodi:end="1.5707963"
         sodipodi:arc-type="slice"
         d="m -415,-480 a 5,5 0 0 1 -5,5 v -5 z"
         transform="scale(-1)" />
      <path
         id="path8950"
         style="fill:#494949;fill-opacity:1;stroke:none;stroke-width:0.500001;stroke-linecap:round"
         d="m 420.00001,474.99999 v 1 a 4,4 0 0 0 -4,4 h -1 a 5,5 0 0 1 5,-5 z" />
    </g>
    <g
       id="normal-bottomleft"
       transform="translate(33,-970)">
      <path
         style="fill:#3a3a3a;fill-opacity:1;stroke:none;stroke-width:0.500001;stroke-linecap:round"
         id="path8960"
         sodipodi:type="arc"
         sodipodi:cx="-420"
         sodipodi:cy="495"
         sodipodi:rx="5"
         sodipodi:ry="5"
         sodipodi:start="0"
         sodipodi:end="1.5707963"
         sodipodi:arc-type="slice"
         d="m -415,495 a 5,5 0 0 1 -5,5 v -5 z"
         transform="scale(-1,1)" />
      <path
         id="path8962"
         style="fill:url(#linearGradient8984);fill-opacity:1;stroke:none;stroke-width:0.500001;stroke-linecap:round"
         d="m 420,500 v -1 a 4,4 0 0 1 -4,-4 h -1 a 5,5 0 0 0 5,5 z" />
    </g>
    <g
       id="normal-bottomright"
       transform="translate(33,-970)">
      <path
         style="fill:#3a3a3a;fill-opacity:1;stroke:none;stroke-width:0.500001;stroke-linecap:round"
         id="path8966"
         sodipodi:type="arc"
         sodipodi:cx="435"
         sodipodi:cy="495"
         sodipodi:rx="5"
         sodipodi:ry="5"
         sodipodi:start="0"
         sodipodi:end="1.5707963"
         sodipodi:arc-type="slice"
         d="m 440,495 a 5,5 0 0 1 -5,5 v -5 z" />
      <path
         id="path8968"
         style="fill:#383838;fill-opacity:1;stroke:none;stroke-width:0.500001;stroke-linecap:round"
         d="m 435.00001,500 v -1 a 4,4 0 0 0 4,-4 h 1 a 5,5 0 0 1 -5,5 z" />
    </g>
    <g
       id="normal-right"
       transform="translate(33,-970)">
      <rect
         style="fill:#3a3a3a;fill-opacity:1;stroke:none;stroke-width:0.5;stroke-linecap:round"
         id="rect8954"
         width="15"
         height="5"
         x="480"
         y="-440"
         transform="rotate(90)" />
      <rect
         style="fill:#383838;fill-opacity:1;stroke:none;stroke-width:0.499998;stroke-linecap:round"
         id="rect8956"
         width="15"
         height="1"
         x="480"
         y="-440"
         transform="rotate(90)" />
    </g>
    <g
       id="normal-left"
       transform="translate(33,-970)">
      <rect
         style="fill:#3a3a3a;fill-opacity:1;stroke:none;stroke-width:0.5;stroke-linecap:round"
         id="rect8972"
         width="15"
         height="5"
         x="-495"
         y="415"
         transform="rotate(-90)" />
      <rect
         style="fill:#494949;fill-opacity:1;stroke:none;stroke-width:0.499998;stroke-linecap:round"
         id="rect8974"
         width="15"
         height="1"
         x="-495"
         y="415"
         transform="rotate(-90)" />
    </g>
    <g
       id="normal-top"
       transform="rotate(90,929,19)">
      <rect
         style="fill:#3a3a3a;fill-opacity:1;stroke:none;stroke-width:0.5;stroke-linecap:round"
         id="rect3376"
         width="15"
         height="5"
         x="-495"
         y="415"
         transform="rotate(-90)" />
      <rect
         style="fill:#494949;fill-opacity:1;stroke:none;stroke-width:0.499998;stroke-linecap:round"
         id="rect3378"
         width="15"
         height="1"
         x="-495"
         y="415"
         transform="rotate(-90)" />
    </g>
    <g
       id="normal-bottom"
       transform="rotate(90,929,19)">
      <rect
         style="fill:#3a3a3a;fill-opacity:1;stroke:none;stroke-width:0.5;stroke-linecap:round"
         id="rect3384"
         width="15"
         height="5"
         x="480"
         y="-440"
         transform="rotate(90)" />
      <rect
         style="fill:#383838;fill-opacity:1;stroke:none;stroke-width:0.499998;stroke-linecap:round"
         id="rect3386"
         width="15"
         height="1"
         x="480"
         y="-440"
         transform="rotate(90)" />
    </g>
    <path
       id="normal-hint-right-margin"
       d="m 462,-507 h 5 v 1 h -5 z"
       style="fill:#008080;fill-rule:evenodd;stroke-width:0.999997" />
    <rect
       style="fill:#cccccc;fill-opacity:1;stroke:none;stroke-width:0.5;stroke-linecap:round;opacity:0.05"
       id="hover-center"
       width="15"
       height="15"
       x="490"
       y="-490" />
    <g
       id="hover-topright"
       transform="translate(70,-970)">
      <path
         style="fill:#cccccc;fill-opacity:1;stroke:none;stroke-width:0.500001;stroke-linecap:round;opacity:0.05"
         id="path4115"
         sodipodi:type="arc"
         sodipodi:cx="435"
         sodipodi:cy="-480"
         sodipodi:rx="5"
         sodipodi:ry="5"
         sodipodi:start="0"
         sodipodi:end="1.5707963"
         sodipodi:arc-type="slice"
         d="m 440,-480 a 5,5 0 0 1 -5,5 v -5 z"
         transform="scale(1,-1)" />
      <path
         id="path4117"
         style="fill:url(#linearGradient4179);fill-opacity:1;stroke:none;stroke-width:0.500001;stroke-linecap:round"
         d="m 435.00001,474.99999 v 1 a 4,4 0 0 1 4,4 h 1 a 5,5 0 0 0 -5,-5 z" />
    </g>
    <g
       id="hover-topleft"
       transform="translate(70,-970)">
      <path
         style="fill:#cccccc;fill-opacity:1;stroke:none;stroke-width:0.500001;stroke-linecap:round;opacity:0.05"
         id="path4123"
         sodipodi:type="arc"
         sodipodi:cx="-420"
         sodipodi:cy="-480"
         sodipodi:rx="5"
         sodipodi:ry="5"
         sodipodi:start="0"
         sodipodi:end="1.5707963"
         sodipodi:arc-type="slice"
         d="m -415,-480 a 5,5 0 0 1 -5,5 v -5 z"
         transform="scale(-1)" />
      <path
         id="path4125"
         style="fill:#494949;fill-opacity:1;stroke:none;stroke-width:0.500001;stroke-linecap:round"
         d="m 420.00001,474.99999 v 1 a 4,4 0 0 0 -4,4 h -1 a 5,5 0 0 1 5,-5 z" />
    </g>
    <g
       id="hover-bottomleft"
       transform="translate(70,-970)">
      <path
         style="fill:#cccccc;fill-opacity:1;stroke:none;stroke-width:0.500001;stroke-linecap:round;opacity:0.05"
         id="path4131"
         sodipodi:type="arc"
         sodipodi:cx="-420"
         sodipodi:cy="495"
         sodipodi:rx="5"
         sodipodi:ry="5"
         sodipodi:start="0"
         sodipodi:end="1.5707963"
         sodipodi:arc-type="slice"
         d="m -415,495 a 5,5 0 0 1 -5,5 v -5 z"
         transform="scale(-1,1)" />
      <path
         id="path4133"
         style="fill:url(#linearGradient4177);fill-opacity:1;stroke:none;stroke-width:0.500001;stroke-linecap:round"
         d="m 420,500 v -1 a 4,4 0 0 1 -4,-4 h -1 a 5,5 0 0 0 5,5 z" />
    </g>
    <g
       id="hover-bottomright"
       transform="translate(70,-970)">
      <path
         style="fill:#cccccc;fill-opacity:1;stroke:none;stroke-width:0.500001;stroke-linecap:round;opacity:0.05"
         id="path4139"
         sodipodi:type="arc"
         sodipodi:cx="435"
         sodipodi:cy="495"
         sodipodi:rx="5"
         sodipodi:ry="5"
         sodipodi:start="0"
         sodipodi:end="1.5707963"
         sodipodi:arc-type="slice"
         d="m 440,495 a 5,5 0 0 1 -5,5 v -5 z" />
      <path
         id="path4141"
         style="fill:#383838;fill-opacity:1;stroke:none;stroke-width:0.500001;stroke-linecap:round"
         d="m 435.00001,500 v -1 a 4,4 0 0 0 4,-4 h 1 a 5,5 0 0 1 -5,5 z" />
    </g>
    <g
       id="hover-right"
       transform="translate(70,-970)">
      <rect
         style="fill:#cccccc;fill-opacity:1;stroke:none;stroke-width:0.5;stroke-linecap:round;opacity:0.05"
         id="rect4145"
         width="15"
         height="5"
         x="480"
         y="-440"
         transform="rotate(90)" />
      <rect
         style="fill:#383838;fill-opacity:1;stroke:none;stroke-width:0.499998;stroke-linecap:round"
         id="rect4147"
         width="15"
         height="1"
         x="480"
         y="-440"
         transform="rotate(90)" />
    </g>
    <g
       id="hover-left"
       transform="translate(70,-970)">
      <rect
         style="fill:#cccccc;fill-opacity:1;stroke:none;stroke-width:0.5;stroke-linecap:round;opacity:0.05"
         id="rect4153"
         width="15"
         height="5"
         x="-495"
         y="415"
         transform="rotate(-90)" />
      <rect
         style="fill:#494949;fill-opacity:1;stroke:none;stroke-width:0.499998;stroke-linecap:round"
         id="rect4155"
         width="15"
         height="1"
         x="-495"
         y="415"
         transform="rotate(-90)" />
    </g>
    <g
       id="hover-top"
       transform="rotate(90,947.5,37.5)">
      <rect
         style="fill:#cccccc;fill-opacity:1;stroke:none;stroke-width:0.5;stroke-linecap:round;opacity:0.05"
         id="rect4161"
         width="15"
         height="5"
         x="-495"
         y="415"
         transform="rotate(-90)" />
      <rect
         style="fill:#494949;fill-opacity:1;stroke:none;stroke-width:0.499998;stroke-linecap:round"
         id="rect4163"
         width="15"
         height="1"
         x="-495"
         y="415"
         transform="rotate(-90)" />
    </g>
    <g
       id="hover-bottom"
       transform="rotate(90,947.5,37.5)">
      <rect
         style="fill:#cccccc;fill-opacity:1;stroke:none;stroke-width:0.5;stroke-linecap:round;opacity:0.05"
         id="rect4169"
         width="15"
         height="5"
         x="480"
         y="-440"
         transform="rotate(90)" />
      <rect
         style="fill:#383838;fill-opacity:1;stroke:none;stroke-width:0.499998;stroke-linecap:round"
         id="rect4171"
         width="15"
         height="1"
         x="480"
         y="-440"
         transform="rotate(90)" />
    </g>
    <path
       id="hover-hint-top-margin"
       d="m 498,-508.01 h 1 v 0.01 h -1 z"
       style="fill:#008080;fill-rule:evenodd;stroke-width:0.999996" />
    <path
       id="hover-hint-bottom-margin"
       d="m 498,-505 h 1 v 0.01 h -1 z"
       style="fill:#008080;fill-rule:evenodd;stroke-width:0.999996" />
    <path
       id="hover-hint-left-margin"
       d="M 496.99,-507 H 497 v 1 h -0.01 z"
       style="fill:#008080;fill-rule:evenodd;stroke-width:0.999996" />
    <path
       id="hover-hint-right-margin"
       d="m 500,-507 h 0.01 v 1 H 500 Z"
       style="fill:#008080;fill-rule:evenodd;stroke-width:0.999996" />
    <rect
       style="fill:#b9553b;fill-opacity:1;stroke:none;stroke-width:0.5;stroke-linecap:round"
       id="pressed-center"
       width="15"
       height="15"
       x="525"
       y="-490" />
    <rect
       style="fill:#b9553b;fill-opacity:1;stroke:none;stroke-width:0.5;stroke-linecap:round"
       id="pressed-top"
       width="15"
       height="5"
       x="525"
       y="-495" />
    <use
       x="0"
       y="0"
       xlink:href="#pressed-top"
       id="pressed-bottom"
       transform="translate(0,20)" />
    <use
       x="0"
       y="0"
       xlink:href="#pressed-top"
       id="pressed-right"
       transform="rotate(90,532.5,-482.5)" />
    <use
       x="0"
       y="0"
       xlink:href="#pressed-top"
       id="pressed-left"
       transform="rotate(-90,532.5,-482.5)" />
    <path
       style="opacity:1;fill:#b9553b;fill-opacity:1;stroke-width:0.999999;stroke-linecap:round;stroke-linejoin:round"
       id="pressed-topright"
       sodipodi:type="arc"
       sodipodi:cx="540"
       sodipodi:cy="490"
       sodipodi:rx="5"
       sodipodi:ry="5"
       sodipodi:start="0"
       sodipodi:end="1.5707963"
       sodipodi:arc-type="slice"
       d="m 545,490 a 5,5 0 0 1 -5,5 v -5 z"
       transform="scale(1,-1)" />
    <use
       x="0"
       y="0"
       xlink:href="#pressed-topright"
       id="pressed-topleft"
       transform="matrix(-1,0,0,1,1065,0)" />
    <use
       x="0"
       y="0"
       xlink:href="#pressed-topright"
       id="pressed-bottomright"
       transform="matrix(1,0,0,-1,0,-965)" />
    <use
       x="0"
       y="0"
       xlink:href="#pressed-topright"
       id="pressed-bottomleft"
       transform="rotate(180,532.5,-482.5)" />
    <path
       id="pressed-hint-top-margin"
       d="m 533,-513 h 1 v 5 h -1 z"
       style="fill:#008080;fill-rule:evenodd;stroke-width:0.999996" />
    <path
       id="pressed-hint-bottom-margin"
       d="m 533,-505 h 1 v 5 h -1 z"
       style="fill:#008080;fill-rule:evenodd;stroke-width:0.999995" />
    <path
       id="pressed-hint-left-margin"
       d="m 527,-507 h 5 v 1 h -5 z"
       style="fill:#008080;fill-rule:evenodd;stroke-width:0.999995" />
    <path
       id="pressed-hint-right-margin"
       d="m 535,-507 h 5 v 1 h -5 z"
       style="fill:#008080;fill-rule:evenodd;stroke-width:0.999995" />
  </g>
</svg>
