<?xml version="1.0" encoding="UTF-8" standalone="no"?>
<!-- Created with Inkscape (http://www.inkscape.org/) -->

<svg
   width="110"
   height="25.000019"
   viewBox="0 0 110 25.00002"
   version="1.1"
   id="svg17788"
   inkscape:version="1.2.2 (b0a8486541, 2022-12-01)"
   sodipodi:docname="lineedit.svg"
   xmlns:inkscape="http://www.inkscape.org/namespaces/inkscape"
   xmlns:sodipodi="http://sodipodi.sourceforge.net/DTD/sodipodi-0.dtd"
   xmlns:xlink="http://www.w3.org/1999/xlink"
   xmlns="http://www.w3.org/2000/svg"
   xmlns:svg="http://www.w3.org/2000/svg">
  <sodipodi:namedview
     id="namedview17790"
     pagecolor="#d1d1d1"
     bordercolor="#6b6b6b"
     borderopacity="1"
     inkscape:showpageshadow="0"
     inkscape:pageopacity="0"
     inkscape:pagecheckerboard="1"
     inkscape:deskcolor="#d1d1d1"
     inkscape:document-units="px"
     showgrid="true"
     shape-rendering="crispEdges"
     inkscape:zoom="6.7277219"
     inkscape:cx="101.66889"
     inkscape:cy="40.429733"
     inkscape:current-layer="layer1">
    <inkscape:grid
       type="xygrid"
       id="grid2266"
       originx="-450"
       originy="406.00002" />
  </sodipodi:namedview>
  <defs
     id="defs17785" />
  <g
     inkscape:label="Layer 1"
     inkscape:groupmode="layer"
     id="layer1"
     transform="translate(-450,406)">
    <rect
       id="hint-focus-over-base"
       height="1"
       rx="1.0217391"
       style="opacity:0.99;fill:#008080;fill-opacity:1;fill-rule:nonzero;stroke-width:0.999997"
       width="1"
       x="489"
       y="-400" />
    <rect
       id="base-hint-left-margin"
       height="1"
       style="fill:#008080;fill-opacity:1;fill-rule:nonzero;stroke-width:0.999997"
       width="5"
       x="483"
       y="-400" />
    <rect
       style="fill:#1c1a28;fill-opacity:1;stroke:none;stroke-width:0.5;stroke-linecap:round"
       id="base-center"
       width="15"
       height="15"
       x="455"
       y="-401" />
    <use
       x="0"
       y="0"
       xlink:href="#base-top"
       id="base-bottom"
       transform="matrix(1,0,0,-1,0,-786.99998)" />
    <use
       x="0"
       y="0"
       xlink:href="#base-top"
       id="base-right"
       transform="rotate(90,462.5,-393.49999)" />
    <use
       x="0"
       y="0"
       xlink:href="#base-top"
       id="base-left"
       transform="rotate(-90,462.5,-393.5)" />
    <use
       x="0"
       y="0"
       xlink:href="#base-topright"
       id="base-topleft"
       transform="matrix(-1,0,0,1,925,0)" />
    <use
       x="0"
       y="0"
       xlink:href="#base-topright"
       id="base-bottomright"
       transform="matrix(1,0,0,-1,0,-786.99998)" />
    <use
       x="0"
       y="0"
       xlink:href="#base-topright"
       id="base-bottomleft"
       transform="rotate(180,462.5,-393.5)" />
    <g
       id="base-top"
       transform="translate(205,-1021)">
      <rect
         style="opacity:1;fill:#1c1a28;fill-opacity:1;stroke:none;stroke-width:0.5;stroke-linecap:round"
         id="rect3225"
         width="15"
         height="5"
         x="250"
         y="615" />
      <rect
         style="opacity:1;fill:#53525f;fill-opacity:1;stroke:none;stroke-width:0.499998;stroke-linecap:round"
         id="rect3219"
         width="15"
         height="1"
         x="250"
         y="615" />
    </g>
    <g
       id="base-topright"
       transform="translate(205,-1021)">
      <path
         style="opacity:1;fill:#1c1a28;fill-opacity:1;stroke:none;stroke-width:0.500001;stroke-linecap:round"
         id="path3267"
         sodipodi:type="arc"
         sodipodi:cx="265"
         sodipodi:cy="-620"
         sodipodi:rx="5"
         sodipodi:ry="5"
         sodipodi:start="0"
         sodipodi:end="1.5707963"
         sodipodi:arc-type="slice"
         d="m 270,-620 a 5,5 0 0 1 -5,5 v -5 z"
         transform="scale(1,-1)" />
      <path
         id="path3252"
         style="opacity:1;fill:#53525f;fill-opacity:1;stroke:none;stroke-width:0.500001;stroke-linecap:round"
         d="m 265,615 v 1 a 4,4 0 0 1 4,4 h 1 a 5,5 0 0 0 -5,-5 z" />
    </g>
    <rect
       id="base-hint-right-margin"
       height="1"
       style="fill:#008080;fill-opacity:1;fill-rule:nonzero;stroke-width:0.999997"
       width="5"
       x="491"
       y="-400" />
    <rect
       id="base-hint-bottom-margin"
       height="5"
       style="fill:#008080;fill-opacity:1;fill-rule:nonzero;stroke-width:0.999995"
       x="489"
       y="-398"
       width="1" />
    <rect
       id="base-hint-top-margin"
       height="5"
       style="fill:#008080;fill-opacity:1;fill-rule:nonzero;stroke-width:0.999995"
       width="1"
       x="489"
       y="-406" />
    <rect
       style="fill:none;fill-opacity:1;stroke:none;stroke-width:0.5;stroke-linecap:round"
       id="hover-center"
       width="15"
       height="15"
       x="505"
       y="-401" />
    <g
       id="hover-top"
       transform="translate(255,-1021)">
      <rect
         style="opacity:1;fill:none;fill-opacity:1;stroke:none;stroke-width:0.5;stroke-linecap:round"
         id="rect4893"
         width="15"
         height="5"
         x="250"
         y="615" />
      <rect
         style="opacity:1;fill:#9391a2;fill-opacity:1;stroke:none;stroke-width:0.499998;stroke-linecap:round"
         id="rect4895"
         width="15"
         height="1"
         x="250"
         y="615" />
    </g>
    <g
       id="hover-topright"
       transform="translate(255,-1021)">
      <path
         style="opacity:1;fill:none;fill-opacity:1;stroke:none;stroke-width:0.500001;stroke-linecap:round"
         id="path4899"
         sodipodi:type="arc"
         sodipodi:cx="265"
         sodipodi:cy="-620"
         sodipodi:rx="5"
         sodipodi:ry="5"
         sodipodi:start="0"
         sodipodi:end="1.5707963"
         sodipodi:arc-type="slice"
         d="m 270,-620 a 5,5 0 0 1 -5,5 v -5 z"
         transform="scale(1,-1)" />
      <path
         id="path4901"
         style="opacity:1;fill:#9391a2;fill-opacity:1;stroke:none;stroke-width:0.500001;stroke-linecap:round"
         d="m 265,615 v 1 a 4,4 0 0 1 4,4 h 1 a 5,5 0 0 0 -5,-5 z" />
    </g>
    <use
       x="0"
       y="0"
       xlink:href="#hover-top"
       id="hover-bottom"
       transform="matrix(1,0,0,-1,0,-787)" />
    <use
       x="0"
       y="0"
       xlink:href="#hover-top"
       id="hover-right"
       transform="rotate(90,512.5,-393.5)" />
    <use
       x="0"
       y="0"
       xlink:href="#hover-top"
       id="hover-left"
       transform="rotate(-90,512.5,-393.5)" />
    <use
       x="0"
       y="0"
       xlink:href="#hover-topright"
       id="hover-topleft"
       transform="matrix(-1,0,0,1,1025,0)" />
    <use
       x="0"
       y="0"
       xlink:href="#hover-topright"
       id="hover-bottomright"
       transform="matrix(1,0,0,-1,0,-787)" />
    <use
       x="0"
       y="0"
       xlink:href="#hover-topright"
       id="hover-bottomleft"
       transform="rotate(180,512.5,-393.5)" />
    <rect
       id="hover-hint-left-margin"
       height="1"
       style="fill:#008080;fill-opacity:1;fill-rule:nonzero;stroke-width:0.999996"
       width="0.0099999998"
       x="490.98999"
       y="-389" />
    <rect
       id="hover-hint-right-margin"
       height="1"
       style="fill:#008080;fill-opacity:1;fill-rule:nonzero;stroke-width:0.999996"
       width="0.0099999998"
       x="494"
       y="-389" />
    <rect
       id="hover-hint-bottom-margin"
       height="0.0099999998"
       style="fill:#008080;fill-opacity:1;fill-rule:nonzero;stroke-width:0.999996"
       x="492"
       y="-387"
       width="1" />
    <rect
       id="hover-hint-top-margin"
       height="0.0099999998"
       style="fill:#008080;fill-opacity:1;fill-rule:nonzero;stroke-width:0.999996"
       width="1"
       x="492"
       y="-390.01001" />
    <rect
       style="fill:none;fill-opacity:1;stroke:none;stroke-width:0.5;stroke-linecap:round"
       id="focus-center"
       width="15"
       height="15"
       x="540"
       y="-401" />
    <g
       id="focus-top"
       transform="translate(290,-1021)">
      <rect
         style="opacity:1;fill:none;fill-opacity:1;stroke:none;stroke-width:0.5;stroke-linecap:round"
         id="rect5138"
         width="15"
         height="5"
         x="250"
         y="615" />
      <rect
         style="opacity:1;fill:#9391a2;fill-opacity:1;stroke:none;stroke-width:0.499998;stroke-linecap:round"
         id="rect5140"
         width="15"
         height="1"
         x="250"
         y="615" />
    </g>
    <g
       id="focus-topright"
       transform="translate(290,-1021)">
      <path
         style="opacity:1;fill:none;fill-opacity:1;stroke:none;stroke-width:0.500001;stroke-linecap:round"
         id="path5144"
         sodipodi:type="arc"
         sodipodi:cx="265"
         sodipodi:cy="-620"
         sodipodi:rx="5"
         sodipodi:ry="5"
         sodipodi:start="0"
         sodipodi:end="1.5707963"
         sodipodi:arc-type="slice"
         d="m 270,-620 a 5,5 0 0 1 -5,5 v -5 z"
         transform="scale(1,-1)" />
      <path
         id="path5146"
         style="opacity:1;fill:#9391a2;fill-opacity:1;stroke:none;stroke-width:0.500001;stroke-linecap:round"
         d="m 265,615 v 1 a 4,4 0 0 1 4,4 h 1 a 5,5 0 0 0 -5,-5 z" />
    </g>
    <use
       x="0"
       y="0"
       xlink:href="#focus-top"
       id="focus-bottom"
       transform="matrix(1,0,0,-1,0,-787)" />
    <use
       x="0"
       y="0"
       xlink:href="#focus-top"
       id="focus-right"
       transform="rotate(90,547.5,-393.5)" />
    <use
       x="0"
       y="0"
       xlink:href="#focus-top"
       id="focus-left"
       transform="rotate(-90,547.5,-393.5)" />
    <use
       x="0"
       y="0"
       xlink:href="#focus-topright"
       id="focus-topleft"
       transform="matrix(-1,0,0,1,1095,0)" />
    <use
       x="0"
       y="0"
       xlink:href="#focus-topright"
       id="focus-bottomright"
       transform="matrix(1,0,0,-1,0,-787)" />
    <use
       x="0"
       y="0"
       xlink:href="#focus-topright"
       id="focus-bottomleft"
       transform="rotate(180,547.5,-393.5)" />
    <rect
       id="focus-hint-left-margin"
       height="1"
       style="fill:#008080;fill-opacity:1;fill-rule:nonzero;stroke-width:0.999996"
       width="0.0099999998"
       x="484.98999"
       y="-389" />
    <rect
       id="focus-hint-right-margin"
       height="1"
       style="fill:#008080;fill-opacity:1;fill-rule:nonzero;stroke-width:0.999996"
       width="0.0099999998"
       x="488"
       y="-389" />
    <rect
       id="focus-hint-bottom-margin"
       height="0.0099999998"
       style="fill:#008080;fill-opacity:1;fill-rule:nonzero;stroke-width:0.999996"
       x="486"
       y="-387"
       width="1" />
    <rect
       id="focus-hint-top-margin"
       height="0.0099999998"
       style="fill:#008080;fill-opacity:1;fill-rule:nonzero;stroke-width:0.999996"
       width="1"
       x="486"
       y="-390.01001" />
  </g>
</svg>
