<?xml version="1.0" encoding="UTF-8" standalone="no"?>
<!-- Created with Inkscape (http://www.inkscape.org/) -->

<svg
   width="94"
   height="29"
   viewBox="0 0 94.000001 29.000001"
   version="1.1"
   id="svg17788"
   inkscape:version="1.3 (0e150ed6c4, 2023-07-21)"
   sodipodi:docname="tabbar.svg"
   xmlns:inkscape="http://www.inkscape.org/namespaces/inkscape"
   xmlns:sodipodi="http://sodipodi.sourceforge.net/DTD/sodipodi-0.dtd"
   xmlns:xlink="http://www.w3.org/1999/xlink"
   xmlns="http://www.w3.org/2000/svg"
   xmlns:svg="http://www.w3.org/2000/svg">
  <sodipodi:namedview
     id="namedview17790"
     pagecolor="#d1d1d1"
     bordercolor="#6b6b6b"
     borderopacity="1"
     inkscape:showpageshadow="0"
     inkscape:pageopacity="0"
     inkscape:pagecheckerboard="1"
     inkscape:deskcolor="#d1d1d1"
     inkscape:document-units="px"
     showgrid="true"
     shape-rendering="crispEdges"
     inkscape:zoom="33.172307"
     inkscape:cx="77.157732"
     inkscape:cy="23.453298"
     inkscape:current-layer="layer1">
    <inkscape:grid
       type="xygrid"
       id="grid2491"
       originx="-13"
       originy="-88.000003"
       spacingy="1"
       spacingx="1"
       units="px"
       visible="true" />
  </sodipodi:namedview>
  <defs
     id="defs17785">
    <linearGradient
       id="linearGradient3"
       inkscape:collect="always">
      <stop
         style="stop-color:#eb5229;stop-opacity:1;"
         offset="0"
         id="stop3" />
      <stop
         style="stop-color:#ff9174;stop-opacity:1;"
         offset="1"
         id="stop4" />
    </linearGradient>
    <linearGradient
       inkscape:collect="always"
       xlink:href="#linearGradient3"
       id="linearGradient4"
       x1="35"
       y1="90"
       x2="40"
       y2="95"
       gradientUnits="userSpaceOnUse" />
    <linearGradient
       inkscape:collect="always"
       xlink:href="#linearGradient3"
       id="linearGradient6"
       x1="40"
       y1="95"
       x2="35"
       y2="90"
       gradientUnits="userSpaceOnUse" />
    <linearGradient
       inkscape:collect="always"
       xlink:href="#linearGradient3"
       id="linearGradient15"
       x1="40"
       y1="95"
       x2="35"
       y2="90"
       gradientUnits="userSpaceOnUse" />
    <linearGradient
       inkscape:collect="always"
       xlink:href="#linearGradient3"
       id="linearGradient17"
       x1="35"
       y1="90"
       x2="40"
       y2="95"
       gradientUnits="userSpaceOnUse" />
  </defs>
  <g
     inkscape:label="Layer 1"
     inkscape:groupmode="layer"
     id="layer1"
     transform="translate(-13,-88)">
    <g
       id="south-active-tab-topright">
      <rect
         style="opacity:0.2;fill:none;stroke-width:1;stroke-linecap:round;stroke-linejoin:round"
         id="rect4665"
         width="7"
         height="7"
         x="35"
         y="88"
         rx="0.1"
         ry="0.1" />
      <path
         style="fill:#fe7551;fill-opacity:1;stroke-width:1;stroke-linecap:round;stroke-linejoin:round"
         id="path4607"
         sodipodi:type="arc"
         sodipodi:cx="35"
         sodipodi:cy="-95"
         sodipodi:rx="5"
         sodipodi:ry="5"
         sodipodi:start="0"
         sodipodi:end="1.5707963"
         sodipodi:arc-type="slice"
         d="m 40,-95 a 5,5 0 0 1 -5,5 v -5 z"
         transform="scale(1,-1)" />
      <path
         id="path3772"
         style="fill:url(#linearGradient6);fill-opacity:1;stroke-width:1;stroke-linecap:round;stroke-linejoin:round"
         d="m 35,89.999997 v 1 a 4,4.0000029 0 0 1 4,4 h 1 a 5,5 0 0 0 -5,-5 z" />
    </g>
    <rect
       style="opacity:1;fill:#fe7551;fill-opacity:1;stroke-width:1;stroke-linecap:round;stroke-linejoin:round"
       id="south-active-tab-center"
       width="15"
       height="15"
       x="20"
       y="95" />
    <rect
       y="101"
       x="43"
       height="1"
       width="6.0000005"
       id="south-active-tab-hint-left-margin"
       style="fill:#008080;fill-opacity:1;fill-rule:nonzero;stroke:none;stroke-width:0.92582" />
    <rect
       style="fill:#008080;fill-opacity:1;fill-rule:nonzero;stroke:none;stroke-width:0.92582"
       id="south-active-tab-hint-right-margin"
       width="5.9999995"
       height="1"
       x="52"
       y="101" />
    <rect
       y="90"
       x="50"
       height="10"
       width="1"
       id="south-active-tab-hint-top-margin"
       style="fill:#008080;fill-opacity:1;fill-rule:nonzero;stroke:none;stroke-width:1.19523" />
    <rect
       style="fill:#008080;fill-opacity:1;fill-rule:nonzero;stroke:none;stroke-width:1.19523"
       id="south-active-tab-hint-bottom-margin"
       width="1"
       height="9.999999"
       x="50"
       y="103" />
    <rect
       y="101"
       x="62"
       height="1.0000005"
       width="6.0000005"
       id="north-active-tab-hint-left-margin"
       style="fill:#008080;fill-opacity:1;fill-rule:nonzero;stroke:none;stroke-width:0.92582" />
    <rect
       style="fill:#008080;fill-opacity:1;fill-rule:nonzero;stroke:none;stroke-width:0.92582"
       id="north-active-tab-hint-rightmargin"
       width="5.9999995"
       height="1.0000005"
       x="71"
       y="101" />
    <rect
       y="90"
       x="69"
       height="10"
       width="1"
       id="north-active-tab-hint-top-margin"
       style="fill:#008080;fill-opacity:1;fill-rule:nonzero;stroke:none;stroke-width:1.19523" />
    <rect
       style="fill:#008080;fill-opacity:1;fill-rule:nonzero;stroke:none;stroke-width:1.19523"
       id="north-active-tab-hint-bottom-margin"
       width="1"
       height="9.999999"
       x="69"
       y="103" />
    <rect
       style="opacity:1;fill:#fe7551;fill-opacity:1;stroke-width:1;stroke-linecap:round;stroke-linejoin:round"
       id="north-active-tab-center"
       width="15"
       height="15"
       x="85"
       y="95" />
    <g
       id="south-active-tab-top"
       transform="matrix(0.99999998,0,0,1.4285714,4.6595746e-7,-36.714281)">
      <rect
         style="opacity:0.2;fill:none;stroke-width:0.447214;stroke-linecap:round;stroke-linejoin:round"
         id="rect4513"
         width="15"
         height="1.4000006"
         x="20"
         y="87.300003"
         rx="0.21428572"
         ry="0.020000009" />
      <rect
         style="fill:#fe7551;fill-opacity:1;stroke-width:0.748331;stroke-linecap:round;stroke-linejoin:round"
         id="rect4507"
         width="15"
         height="2.7999969"
         x="20"
         y="89.400002" />
      <rect
         style="fill:#ff9174;fill-opacity:1;stroke-width:0.83666;stroke-linecap:round;stroke-linejoin:round"
         id="rect1794"
         width="15"
         height="0.69999909"
         x="20"
         y="88.700005" />
    </g>
    <use
       x="0"
       y="0"
       xlink:href="#south-active-tab-top"
       id="south-active-tab-left"
       transform="rotate(-90,27.5,102.5)" />
    <g
       id="south-active-tab-bottomleft"
       transform="rotate(180,27.5,102.5)">
      <rect
         style="opacity:0.2;fill:none;stroke-width:1;stroke-linecap:round;stroke-linejoin:round"
         id="rect876"
         width="7"
         height="7"
         x="35"
         y="88"
         rx="0.1"
         ry="0.1" />
      <path
         style="fill:#fe7551;fill-opacity:1;stroke-width:1;stroke-linecap:round;stroke-linejoin:round"
         id="path878"
         sodipodi:type="arc"
         sodipodi:cx="35"
         sodipodi:cy="-95"
         sodipodi:rx="5"
         sodipodi:ry="5"
         sodipodi:start="0"
         sodipodi:end="1.5707963"
         sodipodi:arc-type="slice"
         d="m 40,-95 a 5,5 0 0 1 -5,5 v -5 z"
         transform="scale(1,-1)" />
      <path
         id="path880"
         style="fill:url(#linearGradient4);fill-opacity:1;stroke-width:1;stroke-linecap:round;stroke-linejoin:round"
         d="m 35,89.999997 v 1 a 4,4.0000029 0 0 1 4,4 h 1 a 5,5 0 0 0 -5,-5 z" />
    </g>
    <g
       id="south-active-tab-topleft"
       transform="matrix(-1,0,0,1,55,0)">
      <rect
         style="opacity:0.2;fill:none;stroke-width:1;stroke-linecap:round;stroke-linejoin:round"
         id="rect926"
         width="7"
         height="7"
         x="35"
         y="88"
         rx="0.1"
         ry="0.1" />
      <path
         style="fill:#fe7551;fill-opacity:1;stroke-width:1;stroke-linecap:round;stroke-linejoin:round"
         id="path928"
         sodipodi:type="arc"
         sodipodi:cx="35"
         sodipodi:cy="-95"
         sodipodi:rx="5"
         sodipodi:ry="5"
         sodipodi:start="0"
         sodipodi:end="1.5707963"
         sodipodi:arc-type="slice"
         d="m 40,-95 a 5,5 0 0 1 -5,5 v -5 z"
         transform="scale(1,-1)" />
      <path
         id="path930"
         style="fill:#ff9174;fill-opacity:1;stroke-width:1;stroke-linecap:round;stroke-linejoin:round"
         d="m 35,89.999997 v 1 a 4,4.0000029 0 0 1 4,4 h 1 a 5,5 0 0 0 -5,-5 z" />
    </g>
    <g
       id="south-active-tab-bottomright"
       transform="matrix(1,0,0,-1,0,205)">
      <rect
         style="opacity:0.2;fill:none;stroke-width:1;stroke-linecap:round;stroke-linejoin:round"
         id="rect934"
         width="7"
         height="7"
         x="35"
         y="88"
         rx="0.1"
         ry="0.1" />
      <path
         style="fill:#fe7551;fill-opacity:1;stroke-width:1;stroke-linecap:round;stroke-linejoin:round"
         id="path936"
         sodipodi:type="arc"
         sodipodi:cx="35"
         sodipodi:cy="-95"
         sodipodi:rx="5"
         sodipodi:ry="5"
         sodipodi:start="0"
         sodipodi:end="1.5707963"
         sodipodi:arc-type="slice"
         d="m 40,-95 a 5,5 0 0 1 -5,5 v -5 z"
         transform="scale(1,-1)" />
      <path
         id="path938"
         style="fill:#eb5229;fill-opacity:1;stroke-width:1;stroke-linecap:round;stroke-linejoin:round"
         d="m 35,89.999997 v 1 a 4,4.0000029 0 0 1 4,4 h 1 a 5,5 0 0 0 -5,-5 z" />
    </g>
    <g
       id="north-active-tab-top"
       transform="translate(65)">
      <rect
         style="opacity:0.2;fill:none;stroke-width:1;stroke-linecap:round;stroke-linejoin:round"
         id="rect1010"
         width="15"
         height="7"
         x="20"
         y="88"
         rx="0.21428572"
         ry="0.1" />
      <rect
         style="fill:#fe7551;fill-opacity:1;stroke-width:1;stroke-linecap:round;stroke-linejoin:round"
         id="rect1012"
         width="15"
         height="5"
         x="20"
         y="90" />
      <rect
         style="fill:#ff9174;fill-opacity:1;stroke-width:0.999999;stroke-linecap:round;stroke-linejoin:round"
         id="rect1014"
         width="15"
         height="0.99999702"
         x="20"
         y="90" />
    </g>
    <use
       x="0"
       y="0"
       xlink:href="#north-active-tab-bottom"
       id="north-active-tab-right"
       transform="matrix(0,1,1,0,-10.000001,10.000001)" />
    <use
       x="0"
       y="0"
       xlink:href="#north-active-tab-top"
       id="north-active-tab-left"
       transform="rotate(-90,92.499999,102.5)" />
    <g
       id="north-active-tab-topright"
       transform="translate(65)">
      <rect
         style="opacity:0.2;fill:none;stroke-width:1;stroke-linecap:round;stroke-linejoin:round"
         id="rect1148"
         width="7"
         height="7"
         x="35"
         y="88"
         rx="0.1"
         ry="0.1" />
      <path
         style="fill:#fe7551;fill-opacity:1;stroke-width:1;stroke-linecap:round;stroke-linejoin:round"
         id="path1150"
         sodipodi:type="arc"
         sodipodi:cx="35"
         sodipodi:cy="-95"
         sodipodi:rx="5"
         sodipodi:ry="5"
         sodipodi:start="0"
         sodipodi:end="1.5707963"
         sodipodi:arc-type="slice"
         d="m 40,-95 a 5,5 0 0 1 -5,5 v -5 z"
         transform="scale(1,-1)" />
      <path
         id="path1152"
         style="fill:url(#linearGradient15);fill-opacity:1;stroke-width:1;stroke-linecap:round;stroke-linejoin:round"
         d="m 35,89.999997 v 1 a 4,4.0000029 0 0 1 4,4 h 1 a 5,5 0 0 0 -5,-5 z" />
    </g>
    <g
       id="south-active-tab-bottom"
       transform="matrix(0.99999998,0,0,-1.4285714,4.6595746e-7,241.71428)">
      <rect
         style="opacity:0.2;fill:none;stroke-width:0.447214;stroke-linecap:round;stroke-linejoin:round"
         id="rect1"
         width="15"
         height="1.4000006"
         x="20"
         y="87.300003"
         rx="0.21428572"
         ry="0.020000009" />
      <rect
         style="fill:#fe7551;fill-opacity:1;stroke-width:0.748331;stroke-linecap:round;stroke-linejoin:round"
         id="rect2"
         width="15"
         height="2.7999969"
         x="20"
         y="89.400002" />
      <rect
         style="fill:#eb5229;fill-opacity:1;stroke-width:0.83666;stroke-linecap:round;stroke-linejoin:round"
         id="rect3"
         width="15"
         height="0.69999909"
         x="20"
         y="88.700005" />
    </g>
    <use
       x="0"
       y="0"
       xlink:href="#south-active-tab-bottom"
       id="south-active-tab-right"
       transform="rotate(-90,27.5,102.5)" />
    <g
       id="north-active-tab-bottom"
       transform="matrix(1,0,0,-1,64.999999,205)">
      <rect
         style="opacity:0.2;fill:none;stroke-width:1;stroke-linecap:round;stroke-linejoin:round"
         id="rect6"
         width="15"
         height="7"
         x="20"
         y="88"
         rx="0.21428572"
         ry="0.1" />
      <rect
         style="fill:#fe7551;fill-opacity:1;stroke-width:1;stroke-linecap:round;stroke-linejoin:round"
         id="rect7"
         width="15"
         height="5"
         x="20"
         y="90" />
      <rect
         style="fill:#eb5229;fill-opacity:1;stroke-width:0.999999;stroke-linecap:round;stroke-linejoin:round"
         id="rect8"
         width="15"
         height="0.99999702"
         x="20"
         y="90" />
    </g>
    <g
       id="north-active-tab-topleft"
       transform="matrix(-1,0,0,1,120,-10e-7)">
      <rect
         style="opacity:0.2;fill:none;stroke-width:1;stroke-linecap:round;stroke-linejoin:round"
         id="rect9"
         width="7"
         height="7"
         x="35"
         y="88"
         rx="0.1"
         ry="0.1" />
      <path
         style="fill:#fe7551;fill-opacity:1;stroke-width:1;stroke-linecap:round;stroke-linejoin:round"
         id="path9"
         sodipodi:type="arc"
         sodipodi:cx="35"
         sodipodi:cy="-95"
         sodipodi:rx="5"
         sodipodi:ry="5"
         sodipodi:start="0"
         sodipodi:end="1.5707963"
         sodipodi:arc-type="slice"
         d="m 40,-95 a 5,5 0 0 1 -5,5 v -5 z"
         transform="scale(1,-1)" />
      <path
         id="path10"
         style="fill:#ff9174;fill-opacity:1;stroke-width:1;stroke-linecap:round;stroke-linejoin:round"
         d="m 35,89.999997 v 1 a 4,4.0000029 0 0 1 4,4 h 1 a 5,5 0 0 0 -5,-5 z" />
    </g>
    <g
       id="north-active-tab-bottomright"
       transform="matrix(1,0,0,-1,64.999999,205)">
      <rect
         style="opacity:0.2;fill:none;stroke-width:1;stroke-linecap:round;stroke-linejoin:round"
         id="rect10"
         width="7"
         height="7"
         x="35"
         y="88"
         rx="0.1"
         ry="0.1" />
      <path
         style="fill:#fe7551;fill-opacity:1;stroke-width:1;stroke-linecap:round;stroke-linejoin:round"
         id="path11"
         sodipodi:type="arc"
         sodipodi:cx="35"
         sodipodi:cy="-95"
         sodipodi:rx="5"
         sodipodi:ry="5"
         sodipodi:start="0"
         sodipodi:end="1.5707963"
         sodipodi:arc-type="slice"
         d="m 40,-95 a 5,5 0 0 1 -5,5 v -5 z"
         transform="scale(1,-1)" />
      <path
         id="path12"
         style="fill:#eb5229;fill-opacity:1;stroke-width:1;stroke-linecap:round;stroke-linejoin:round"
         d="m 35,89.999997 v 1 a 4,4.0000029 0 0 1 4,4 h 1 a 5,5 0 0 0 -5,-5 z" />
    </g>
    <g
       id="north-active-tab-bottomleft"
       transform="rotate(180,60,102.5)">
      <rect
         style="opacity:0.2;fill:none;stroke-width:1;stroke-linecap:round;stroke-linejoin:round"
         id="rect12"
         width="7"
         height="7"
         x="35"
         y="88"
         rx="0.1"
         ry="0.1" />
      <path
         style="fill:#fe7551;fill-opacity:1;stroke-width:1;stroke-linecap:round;stroke-linejoin:round"
         id="path13"
         sodipodi:type="arc"
         sodipodi:cx="35"
         sodipodi:cy="-95"
         sodipodi:rx="5"
         sodipodi:ry="5"
         sodipodi:start="0"
         sodipodi:end="1.5707963"
         sodipodi:arc-type="slice"
         d="m 40,-95 a 5,5 0 0 1 -5,5 v -5 z"
         transform="scale(1,-1)" />
      <path
         id="path14"
         style="fill:url(#linearGradient17);fill-opacity:1;stroke-width:1;stroke-linecap:round;stroke-linejoin:round"
         d="m 35,89.999997 v 1 a 4,4.0000029 0 0 1 4,4 h 1 a 5,5 0 0 0 -5,-5 z" />
    </g>
  </g>
</svg>
