<?xml version="1.0" encoding="UTF-8" standalone="no"?>
<!-- Created with Inkscape (http://www.inkscape.org/) -->

<svg
   sodipodi:docname="tasks.svg"
   inkscape:version="1.2.2 (b0a8486541, 2022-12-01)"
   id="svg17788"
   version="1.1"
   viewBox="0 0 149 64.000003"
   height="64"
   width="149"
   xmlns:inkscape="http://www.inkscape.org/namespaces/inkscape"
   xmlns:sodipodi="http://sodipodi.sourceforge.net/DTD/sodipodi-0.dtd"
   xmlns:xlink="http://www.w3.org/1999/xlink"
   xmlns="http://www.w3.org/2000/svg"
   xmlns:svg="http://www.w3.org/2000/svg">
  <sodipodi:namedview
     id="namedview17790"
     pagecolor="#d1d1d1"
     bordercolor="#6b6b6b"
     borderopacity="1"
     inkscape:showpageshadow="0"
     inkscape:pageopacity="0"
     inkscape:pagecheckerboard="1"
     inkscape:deskcolor="#d1d1d1"
     inkscape:document-units="px"
     showgrid="true"
     shape-rendering="crispEdges"
     inkscape:zoom="3.3638608"
     inkscape:cx="42.807955"
     inkscape:cy="-35.673296"
     inkscape:current-layer="layer1">
    <inkscape:grid
       type="xygrid"
       id="grid3128"
       originx="-413"
       originy="-473.00002" />
  </sodipodi:namedview>
  <defs
     id="defs17785">
    <linearGradient
       inkscape:collect="always"
       id="linearGradient4334">
      <stop
         style="stop-color:#adffc3;stop-opacity:1;"
         offset="0"
         id="stop4330" />
      <stop
         style="stop-color:#23732e;stop-opacity:1;"
         offset="1"
         id="stop4332" />
    </linearGradient>
    <linearGradient
       inkscape:collect="always"
       id="linearGradient2663">
      <stop
         style="stop-color:#ffd3ad;stop-opacity:1;"
         offset="0"
         id="stop2659" />
      <stop
         style="stop-color:#734423;stop-opacity:1;"
         offset="1"
         id="stop2661" />
    </linearGradient>
    <linearGradient
       inkscape:collect="always"
       xlink:href="#linearGradient3436"
       id="linearGradient8986"
       gradientUnits="userSpaceOnUse"
       x1="265"
       y1="616"
       x2="269"
       y2="620"
       gradientTransform="translate(170.00001,-140.00001)" />
    <linearGradient
       inkscape:collect="always"
       id="linearGradient3436">
      <stop
         style="stop-color:#494949;stop-opacity:1"
         offset="0"
         id="stop9356" />
      <stop
         style="stop-color:#383838;stop-opacity:1"
         offset="1"
         id="stop9358" />
    </linearGradient>
    <linearGradient
       inkscape:collect="always"
       xlink:href="#linearGradient3436"
       id="linearGradient8984"
       gradientUnits="userSpaceOnUse"
       x1="269"
       y1="620"
       x2="265"
       y2="616"
       gradientTransform="rotate(180,342.5,557.5)" />
    <linearGradient
       inkscape:collect="always"
       xlink:href="#linearGradient5043"
       id="linearGradient13156"
       gradientUnits="userSpaceOnUse"
       x1="265"
       y1="616"
       x2="269"
       y2="620"
       gradientTransform="translate(210,-140)" />
    <linearGradient
       inkscape:collect="always"
       id="linearGradient5043">
      <stop
         style="stop-color:#ffbead;stop-opacity:1;"
         offset="0"
         id="stop5039" />
      <stop
         style="stop-color:#733523;stop-opacity:1;"
         offset="1"
         id="stop5041" />
    </linearGradient>
    <linearGradient
       inkscape:collect="always"
       xlink:href="#linearGradient5043"
       id="linearGradient13154"
       gradientUnits="userSpaceOnUse"
       x1="269"
       y1="620"
       x2="265"
       y2="616"
       gradientTransform="rotate(180,362.5,557.5)" />
    <linearGradient
       inkscape:collect="always"
       xlink:href="#linearGradient6775"
       id="linearGradient4177"
       gradientUnits="userSpaceOnUse"
       gradientTransform="rotate(180,342.5,557.5)"
       x1="269"
       y1="620"
       x2="265"
       y2="616" />
    <linearGradient
       inkscape:collect="always"
       xlink:href="#linearGradient6775"
       id="linearGradient4179"
       gradientUnits="userSpaceOnUse"
       gradientTransform="translate(170.00001,-140.00001)"
       x1="265"
       y1="616"
       x2="269"
       y2="620" />
    <linearGradient
       inkscape:collect="always"
       xlink:href="#linearGradient2663"
       id="linearGradient1048"
       gradientUnits="userSpaceOnUse"
       gradientTransform="rotate(180,342.5,557.5)"
       x1="269"
       y1="620"
       x2="265"
       y2="616" />
    <linearGradient
       inkscape:collect="always"
       xlink:href="#linearGradient2663"
       id="linearGradient1050"
       gradientUnits="userSpaceOnUse"
       gradientTransform="translate(170.00001,-140.00001)"
       x1="265"
       y1="616"
       x2="269"
       y2="620" />
    <linearGradient
       inkscape:collect="always"
       id="linearGradient6775">
      <stop
         style="stop-color:#515151;stop-opacity:1"
         offset="0"
         id="stop3302" />
      <stop
         style="stop-color:#3e3e3e;stop-opacity:1"
         offset="1"
         id="stop3304" />
    </linearGradient>
    <linearGradient
       inkscape:collect="always"
       xlink:href="#linearGradient4334"
       id="linearGradient3744"
       gradientUnits="userSpaceOnUse"
       gradientTransform="rotate(180,342.5,557.5)"
       x1="269"
       y1="620"
       x2="265"
       y2="616" />
    <linearGradient
       inkscape:collect="always"
       xlink:href="#linearGradient4334"
       id="linearGradient3746"
       gradientUnits="userSpaceOnUse"
       gradientTransform="translate(170.00001,-140.00001)"
       x1="265"
       y1="616"
       x2="269"
       y2="620" />
  </defs>
  <g
     inkscape:label="Layer 1"
     inkscape:groupmode="layer"
     id="layer1"
     transform="translate(-413,-473)">
    <rect
       style="fill:#3a3a3a;fill-opacity:1;stroke:none;stroke-width:0.5;stroke-linecap:round"
       id="normal-center"
       width="15"
       height="15"
       x="420"
       y="480" />
    <g
       id="normal-topright">
      <rect
         style="opacity:0.85;fill:none;stroke-width:2;stroke-linecap:round"
         id="rect3544"
         width="7"
         height="7"
         x="435"
         y="473" />
      <path
         style="fill:#3a3a3a;fill-opacity:1;stroke:none;stroke-width:0.500001;stroke-linecap:round"
         id="path8942"
         sodipodi:type="arc"
         sodipodi:cx="435"
         sodipodi:cy="-480"
         sodipodi:rx="5"
         sodipodi:ry="5"
         sodipodi:start="0"
         sodipodi:end="1.5707963"
         sodipodi:arc-type="slice"
         d="m 440,-480 a 5,5 0 0 1 -5,5 v -5 z"
         transform="scale(1,-1)" />
      <path
         id="path8944"
         style="fill:url(#linearGradient8986);fill-opacity:1;stroke:none;stroke-width:0.500001;stroke-linecap:round"
         d="m 435.00001,474.99999 v 1 a 4,4 0 0 1 4,4 h 1 a 5,5 0 0 0 -5,-5 z" />
    </g>
    <g
       id="normal-topleft">
      <rect
         style="opacity:0.85;fill:none;stroke-width:2;stroke-linecap:round"
         id="rect3596"
         width="7"
         height="7"
         x="413"
         y="473" />
      <path
         style="fill:#3a3a3a;fill-opacity:1;stroke:none;stroke-width:0.500001;stroke-linecap:round"
         id="path8948"
         sodipodi:type="arc"
         sodipodi:cx="-420"
         sodipodi:cy="-480"
         sodipodi:rx="5"
         sodipodi:ry="5"
         sodipodi:start="0"
         sodipodi:end="1.5707963"
         sodipodi:arc-type="slice"
         d="m -415,-480 a 5,5 0 0 1 -5,5 v -5 z"
         transform="scale(-1)" />
      <path
         id="path8950"
         style="fill:#494949;fill-opacity:1;stroke:none;stroke-width:0.500001;stroke-linecap:round"
         d="m 420.00001,474.99999 v 1 a 4,4 0 0 0 -4,4 h -1 a 5,5 0 0 1 5,-5 z" />
    </g>
    <g
       id="normal-bottomleft">
      <rect
         style="opacity:0.85;fill:none;stroke-width:2;stroke-linecap:round"
         id="rect3487"
         width="7"
         height="7"
         x="413"
         y="495" />
      <path
         style="fill:#3a3a3a;fill-opacity:1;stroke:none;stroke-width:0.500001;stroke-linecap:round"
         id="path8960"
         sodipodi:type="arc"
         sodipodi:cx="-420"
         sodipodi:cy="495"
         sodipodi:rx="5"
         sodipodi:ry="5"
         sodipodi:start="0"
         sodipodi:end="1.5707963"
         sodipodi:arc-type="slice"
         d="m -415,495 a 5,5 0 0 1 -5,5 v -5 z"
         transform="scale(-1,1)" />
      <path
         id="path8962"
         style="fill:url(#linearGradient8984);fill-opacity:1;stroke:none;stroke-width:0.500001;stroke-linecap:round"
         d="m 420,500 v -1 a 4,4 0 0 1 -4,-4 h -1 a 5,5 0 0 0 5,5 z" />
    </g>
    <g
       id="normal-bottomright">
      <rect
         style="opacity:0.85;fill:none;stroke-width:2;stroke-linecap:round"
         id="rect3651"
         width="7"
         height="7"
         x="435"
         y="495" />
      <path
         style="fill:#3a3a3a;fill-opacity:1;stroke:none;stroke-width:0.500001;stroke-linecap:round"
         id="path8966"
         sodipodi:type="arc"
         sodipodi:cx="435"
         sodipodi:cy="495"
         sodipodi:rx="5"
         sodipodi:ry="5"
         sodipodi:start="0"
         sodipodi:end="1.5707963"
         sodipodi:arc-type="slice"
         d="m 440,495 a 5,5 0 0 1 -5,5 v -5 z" />
      <path
         id="path8968"
         style="fill:#383838;fill-opacity:1;stroke:none;stroke-width:0.500001;stroke-linecap:round"
         d="m 435.00001,500 v -1 a 4,4 0 0 0 4,-4 h 1 a 5,5 0 0 1 -5,5 z" />
    </g>
    <rect
       style="opacity:0.9;fill:#008080;stroke:none;stroke-width:2;stroke-linecap:round"
       id="hint-top-margin"
       width="1"
       height="7"
       x="544"
       y="513"
       rx="0.028995324"
       ry="0.17312887" />
    <rect
       style="opacity:0.9;fill:#008080;stroke:none;stroke-width:2;stroke-linecap:round"
       id="hint-bottom-margin"
       width="1"
       height="7"
       x="544"
       y="523"
       rx="0.028995324"
       ry="0.17312887" />
    <rect
       style="opacity:0.9;fill:#008080;stroke:none;stroke-width:2;stroke-linecap:round"
       id="hint-right-margin"
       width="7"
       height="1"
       x="546"
       y="521"
       rx="0.20296726"
       ry="0.024732696" />
    <rect
       style="opacity:0.9;fill:#008080;stroke:none;stroke-width:2;stroke-linecap:round"
       id="hint-left-margin"
       width="7"
       height="1"
       x="536"
       y="521"
       rx="0.20296726"
       ry="0.024732696" />
    <g
       id="normal-right">
      <rect
         style="fill:#3a3a3a;fill-opacity:1;stroke:none;stroke-width:0.5;stroke-linecap:round"
         id="rect8954"
         width="15"
         height="5"
         x="480"
         y="-440"
         transform="rotate(90)" />
      <rect
         style="fill:#383838;fill-opacity:1;stroke:none;stroke-width:0.499998;stroke-linecap:round"
         id="rect8956"
         width="15"
         height="1"
         x="480"
         y="-440"
         transform="rotate(90)" />
      <rect
         style="fill:none;fill-opacity:1;stroke:none;stroke-width:0.5;stroke-linecap:round"
         id="rect3279"
         width="15"
         height="2"
         x="480"
         y="-442"
         transform="rotate(90)" />
    </g>
    <g
       id="normal-left">
      <rect
         style="fill:#3a3a3a;fill-opacity:1;stroke:none;stroke-width:0.5;stroke-linecap:round"
         id="rect8972"
         width="15"
         height="5"
         x="-495"
         y="415"
         transform="rotate(-90)" />
      <rect
         style="fill:#494949;fill-opacity:1;stroke:none;stroke-width:0.499998;stroke-linecap:round"
         id="rect8974"
         width="15"
         height="1"
         x="-495"
         y="415"
         transform="rotate(-90)" />
      <rect
         style="fill:none;fill-opacity:1;stroke:none;stroke-width:0.5;stroke-linecap:round"
         id="rect3328"
         width="15"
         height="2"
         x="-495"
         y="413"
         transform="rotate(-90)" />
    </g>
    <g
       id="normal-top"
       transform="rotate(90,427.5,487.5)">
      <rect
         style="fill:#3a3a3a;fill-opacity:1;stroke:none;stroke-width:0.5;stroke-linecap:round"
         id="rect3376"
         width="15"
         height="5"
         x="-495"
         y="415"
         transform="rotate(-90)" />
      <rect
         style="fill:#494949;fill-opacity:1;stroke:none;stroke-width:0.499998;stroke-linecap:round"
         id="rect3378"
         width="15"
         height="1"
         x="-495"
         y="415"
         transform="rotate(-90)" />
      <rect
         style="fill:none;fill-opacity:1;stroke:none;stroke-width:0.5;stroke-linecap:round"
         id="rect3380"
         width="15"
         height="2"
         x="-495"
         y="413"
         transform="rotate(-90)" />
    </g>
    <g
       id="normal-bottom"
       transform="rotate(90,427.5,487.5)">
      <rect
         style="fill:#3a3a3a;fill-opacity:1;stroke:none;stroke-width:0.5;stroke-linecap:round"
         id="rect3384"
         width="15"
         height="5"
         x="480"
         y="-440"
         transform="rotate(90)" />
      <rect
         style="fill:#383838;fill-opacity:1;stroke:none;stroke-width:0.499998;stroke-linecap:round"
         id="rect3386"
         width="15"
         height="1"
         x="480"
         y="-440"
         transform="rotate(90)" />
      <rect
         style="fill:none;fill-opacity:1;stroke:none;stroke-width:0.5;stroke-linecap:round"
         id="rect3388"
         width="15"
         height="2"
         x="480"
         y="-442"
         transform="rotate(90)" />
    </g>
    <rect
       style="fill:#fe7551;fill-opacity:1;stroke:none;stroke-width:0.5;stroke-linecap:round"
       id="focus-center"
       width="15"
       height="15"
       x="460"
       y="480" />
    <g
       id="focus-topright">
      <rect
         style="fill:none;fill-opacity:1;stroke:none;stroke-width:0.5;stroke-linecap:round"
         id="rect2715"
         width="7"
         height="7"
         x="475"
         y="473" />
      <path
         style="fill:#fe7551;fill-opacity:1;stroke:none;stroke-width:0.500001;stroke-linecap:round"
         id="path13112"
         sodipodi:type="arc"
         sodipodi:cx="475"
         sodipodi:cy="-480"
         sodipodi:rx="5"
         sodipodi:ry="5"
         sodipodi:start="0"
         sodipodi:end="1.5707963"
         sodipodi:arc-type="slice"
         d="m 480,-480 a 5,5 0 0 1 -5,5 v -5 z"
         transform="scale(1,-1)" />
      <path
         id="path13114"
         style="fill:url(#linearGradient13156);fill-opacity:1;stroke:none;stroke-width:0.500001;stroke-linecap:round"
         d="m 475,475 v 1 a 4,4 0 0 1 4,4 h 1 a 5,5 0 0 0 -5,-5 z" />
    </g>
    <g
       id="focus-topleft">
      <rect
         style="fill:none;fill-opacity:1;stroke:none;stroke-width:0.5;stroke-linecap:round"
         id="rect2724"
         width="7"
         height="7"
         x="453"
         y="473" />
      <path
         style="fill:#fe7551;fill-opacity:1;stroke:none;stroke-width:0.500001;stroke-linecap:round"
         id="path13118"
         sodipodi:type="arc"
         sodipodi:cx="-460"
         sodipodi:cy="-480"
         sodipodi:rx="5"
         sodipodi:ry="5"
         sodipodi:start="0"
         sodipodi:end="1.5707963"
         sodipodi:arc-type="slice"
         d="m -455,-480 a 5,5 0 0 1 -5,5 v -5 z"
         transform="scale(-1)" />
      <path
         id="path13120"
         style="fill:#ffbead;fill-opacity:1;stroke:none;stroke-width:0.500001;stroke-linecap:round"
         d="m 460,475 v 1 a 4,4 0 0 0 -4,4 h -1 a 5,5 0 0 1 5,-5 z" />
    </g>
    <g
       id="focus-bottomleft">
      <rect
         style="fill:none;fill-opacity:1;stroke:none;stroke-width:0.5;stroke-linecap:round"
         id="rect2726"
         width="7"
         height="7"
         x="453"
         y="495" />
      <path
         style="fill:#fe7551;fill-opacity:1;stroke:none;stroke-width:0.500001;stroke-linecap:round"
         id="path13130"
         sodipodi:type="arc"
         sodipodi:cx="-460"
         sodipodi:cy="495"
         sodipodi:rx="5"
         sodipodi:ry="5"
         sodipodi:start="0"
         sodipodi:end="1.5707963"
         sodipodi:arc-type="slice"
         d="m -455,495 a 5,5 0 0 1 -5,5 v -5 z"
         transform="scale(-1,1)" />
      <path
         id="path13132"
         style="fill:url(#linearGradient13154);fill-opacity:1;stroke:none;stroke-width:0.500001;stroke-linecap:round"
         d="m 460,500 v -1 a 4,4 0 0 1 -4,-4 h -1 a 5,5 0 0 0 5,5 z" />
    </g>
    <g
       id="focus-bottomright">
      <rect
         style="fill:none;fill-opacity:1;stroke:none;stroke-width:0.5;stroke-linecap:round"
         id="rect2713"
         width="7"
         height="7"
         x="475"
         y="495" />
      <path
         style="fill:#fe7551;fill-opacity:1;stroke:none;stroke-width:0.500001;stroke-linecap:round"
         id="path13136"
         sodipodi:type="arc"
         sodipodi:cx="475"
         sodipodi:cy="495"
         sodipodi:rx="5"
         sodipodi:ry="5"
         sodipodi:start="0"
         sodipodi:end="1.5707963"
         sodipodi:arc-type="slice"
         d="m 480,495 a 5,5 0 0 1 -5,5 v -5 z" />
      <path
         id="path13138"
         style="fill:#733523;fill-opacity:1;stroke:none;stroke-width:0.500001;stroke-linecap:round"
         d="m 475,500 v -1 a 4,4 0 0 0 4,-4 h 1 a 5,5 0 0 1 -5,5 z" />
    </g>
    <g
       id="focus-top">
      <rect
         style="fill:#fe7551;fill-opacity:1;stroke:none;stroke-width:0.5;stroke-linecap:round"
         id="rect13106"
         width="15"
         height="5"
         x="460"
         y="475" />
      <rect
         style="fill:#ffbead;fill-opacity:1;stroke:none;stroke-width:0.499998;stroke-linecap:round"
         id="rect13108"
         width="15"
         height="1"
         x="460"
         y="475" />
      <rect
         style="fill:none;fill-opacity:1;stroke:none;stroke-width:0.5;stroke-linecap:round"
         id="rect2442"
         width="15"
         height="2"
         x="460"
         y="473" />
    </g>
    <g
       id="focus-left"
       transform="rotate(-90,467.5,487.5)">
      <rect
         style="fill:#fe7551;fill-opacity:1;stroke:none;stroke-width:0.5;stroke-linecap:round"
         id="rect2527"
         width="15"
         height="5"
         x="460"
         y="475" />
      <rect
         style="fill:#ffbead;fill-opacity:1;stroke:none;stroke-width:0.499998;stroke-linecap:round"
         id="rect2529"
         width="15"
         height="1"
         x="460"
         y="475" />
      <rect
         style="fill:none;fill-opacity:1;stroke:none;stroke-width:0.5;stroke-linecap:round"
         id="rect2531"
         width="15"
         height="2"
         x="460"
         y="473" />
    </g>
    <g
       id="focus-right">
      <rect
         style="fill:#fe7551;fill-opacity:1;stroke:none;stroke-width:0.5;stroke-linecap:round"
         id="rect13124"
         width="15"
         height="5"
         x="480"
         y="-480"
         transform="rotate(90)" />
      <rect
         style="fill:#733523;fill-opacity:1;stroke:none;stroke-width:0.499998;stroke-linecap:round"
         id="rect13126"
         width="15"
         height="1"
         x="480"
         y="-480"
         transform="rotate(90)" />
      <rect
         style="fill:none;fill-opacity:1;stroke:none;stroke-width:0.5;stroke-linecap:round"
         id="rect2537"
         width="15"
         height="2"
         x="480"
         y="-482"
         transform="rotate(90)" />
    </g>
    <g
       id="focus-bottom"
       transform="rotate(90,467.5,487.5)">
      <rect
         style="fill:#fe7551;fill-opacity:1;stroke:none;stroke-width:0.5;stroke-linecap:round"
         id="rect2624"
         width="15"
         height="5"
         x="480"
         y="-480"
         transform="rotate(90)" />
      <rect
         style="fill:#733523;fill-opacity:1;stroke:none;stroke-width:0.499998;stroke-linecap:round"
         id="rect2626"
         width="15"
         height="1"
         x="480"
         y="-480"
         transform="rotate(90)" />
      <rect
         style="fill:none;fill-opacity:1;stroke:none;stroke-width:0.5;stroke-linecap:round"
         id="rect2628"
         width="15"
         height="2"
         x="480"
         y="-482"
         transform="rotate(90)" />
    </g>
    <rect
       style="fill:#3a3a3a;fill-opacity:1;stroke:none;stroke-width:0.5;stroke-linecap:round"
       id="minimized-center"
       width="15"
       height="15"
       x="500"
       y="480" />
    <g
       id="minimized-topright"
       transform="translate(80)">
      <rect
         style="opacity:0.85;fill:none;stroke-width:2;stroke-linecap:round"
         id="rect871"
         width="7"
         height="7"
         x="435"
         y="473" />
      <path
         style="fill:#3a3a3a;fill-opacity:1;stroke:none;stroke-width:0.500001;stroke-linecap:round"
         id="path873"
         sodipodi:type="arc"
         sodipodi:cx="435"
         sodipodi:cy="-480"
         sodipodi:rx="5"
         sodipodi:ry="5"
         sodipodi:start="0"
         sodipodi:end="1.5707963"
         sodipodi:arc-type="slice"
         d="m 440,-480 a 5,5 0 0 1 -5,5 v -5 z"
         transform="scale(1,-1)" />
    </g>
    <g
       id="minimized-topleft"
       transform="translate(80)">
      <rect
         style="opacity:0.85;fill:none;stroke-width:2;stroke-linecap:round"
         id="rect879"
         width="7"
         height="7"
         x="413"
         y="473" />
      <path
         style="fill:#3a3a3a;fill-opacity:1;stroke:none;stroke-width:0.500001;stroke-linecap:round"
         id="path881"
         sodipodi:type="arc"
         sodipodi:cx="-420"
         sodipodi:cy="-480"
         sodipodi:rx="5"
         sodipodi:ry="5"
         sodipodi:start="0"
         sodipodi:end="1.5707963"
         sodipodi:arc-type="slice"
         d="m -415,-480 a 5,5 0 0 1 -5,5 v -5 z"
         transform="scale(-1)" />
    </g>
    <g
       id="minimized-bottomleft"
       transform="translate(80)">
      <rect
         style="opacity:0.85;fill:none;stroke-width:2;stroke-linecap:round"
         id="rect887"
         width="7"
         height="7"
         x="413"
         y="495" />
      <path
         style="fill:#3a3a3a;fill-opacity:1;stroke:none;stroke-width:0.500001;stroke-linecap:round"
         id="path889"
         sodipodi:type="arc"
         sodipodi:cx="-420"
         sodipodi:cy="495"
         sodipodi:rx="5"
         sodipodi:ry="5"
         sodipodi:start="0"
         sodipodi:end="1.5707963"
         sodipodi:arc-type="slice"
         d="m -415,495 a 5,5 0 0 1 -5,5 v -5 z"
         transform="scale(-1,1)" />
    </g>
    <g
       id="minimized-bottomright"
       transform="translate(80)">
      <rect
         style="opacity:0.85;fill:none;stroke-width:2;stroke-linecap:round"
         id="rect895"
         width="7"
         height="7"
         x="435"
         y="495" />
      <path
         style="fill:#3a3a3a;fill-opacity:1;stroke:none;stroke-width:0.500001;stroke-linecap:round"
         id="path897"
         sodipodi:type="arc"
         sodipodi:cx="435"
         sodipodi:cy="495"
         sodipodi:rx="5"
         sodipodi:ry="5"
         sodipodi:start="0"
         sodipodi:end="1.5707963"
         sodipodi:arc-type="slice"
         d="m 440,495 a 5,5 0 0 1 -5,5 v -5 z" />
    </g>
    <g
       id="minimized-right"
       transform="translate(80)">
      <rect
         style="fill:#3a3a3a;fill-opacity:1;stroke:none;stroke-width:0.5;stroke-linecap:round"
         id="rect903"
         width="15"
         height="5"
         x="480"
         y="-440"
         transform="rotate(90)" />
      <rect
         style="fill:none;fill-opacity:1;stroke:none;stroke-width:0.5;stroke-linecap:round"
         id="rect907"
         width="15"
         height="2"
         x="480"
         y="-442"
         transform="rotate(90)" />
    </g>
    <g
       id="minimized-left"
       transform="translate(80)">
      <rect
         style="fill:#3a3a3a;fill-opacity:1;stroke:none;stroke-width:0.5;stroke-linecap:round"
         id="rect911"
         width="15"
         height="5"
         x="-495"
         y="415"
         transform="rotate(-90)" />
      <rect
         style="fill:none;fill-opacity:1;stroke:none;stroke-width:0.5;stroke-linecap:round"
         id="rect915"
         width="15"
         height="2"
         x="-495"
         y="413"
         transform="rotate(-90)" />
    </g>
    <g
       id="minimized-top"
       transform="rotate(90,467.5,527.5)">
      <rect
         style="fill:#3a3a3a;fill-opacity:1;stroke:none;stroke-width:0.5;stroke-linecap:round"
         id="rect919"
         width="15"
         height="5"
         x="-495"
         y="415"
         transform="rotate(-90)" />
      <rect
         style="fill:none;fill-opacity:1;stroke:none;stroke-width:0.5;stroke-linecap:round"
         id="rect923"
         width="15"
         height="2"
         x="-495"
         y="413"
         transform="rotate(-90)" />
    </g>
    <g
       id="minimized-bottom"
       transform="rotate(90,467.5,527.5)">
      <rect
         style="fill:#3a3a3a;fill-opacity:1;stroke:none;stroke-width:0.5;stroke-linecap:round"
         id="rect927"
         width="15"
         height="5"
         x="480"
         y="-440"
         transform="rotate(90)" />
      <rect
         style="fill:none;fill-opacity:1;stroke:none;stroke-width:0.5;stroke-linecap:round"
         id="rect931"
         width="15"
         height="2"
         x="480"
         y="-442"
         transform="rotate(90)" />
    </g>
    <rect
       style="fill:#404040;fill-opacity:1;stroke:none;stroke-width:0.5;stroke-linecap:round"
       id="hover-center"
       width="15"
       height="15"
       x="540"
       y="480" />
    <g
       id="hover-topright"
       transform="translate(120)">
      <rect
         style="opacity:0.85;fill:none;stroke-width:2;stroke-linecap:round"
         id="rect4113"
         width="7"
         height="7"
         x="435"
         y="473" />
      <path
         style="fill:#404040;fill-opacity:1;stroke:none;stroke-width:0.500001;stroke-linecap:round"
         id="path4115"
         sodipodi:type="arc"
         sodipodi:cx="435"
         sodipodi:cy="-480"
         sodipodi:rx="5"
         sodipodi:ry="5"
         sodipodi:start="0"
         sodipodi:end="1.5707963"
         sodipodi:arc-type="slice"
         d="m 440,-480 a 5,5 0 0 1 -5,5 v -5 z"
         transform="scale(1,-1)" />
      <path
         id="path4117"
         style="fill:url(#linearGradient4179);fill-opacity:1;stroke:none;stroke-width:0.500001;stroke-linecap:round"
         d="m 435.00001,474.99999 v 1 a 4,4 0 0 1 4,4 h 1 a 5,5 0 0 0 -5,-5 z" />
    </g>
    <g
       id="hover-topleft"
       transform="translate(120)">
      <rect
         style="opacity:0.85;fill:none;stroke-width:2;stroke-linecap:round"
         id="rect4121"
         width="7"
         height="7"
         x="413"
         y="473" />
      <path
         style="fill:#404040;fill-opacity:1;stroke:none;stroke-width:0.500001;stroke-linecap:round"
         id="path4123"
         sodipodi:type="arc"
         sodipodi:cx="-420"
         sodipodi:cy="-480"
         sodipodi:rx="5"
         sodipodi:ry="5"
         sodipodi:start="0"
         sodipodi:end="1.5707963"
         sodipodi:arc-type="slice"
         d="m -415,-480 a 5,5 0 0 1 -5,5 v -5 z"
         transform="scale(-1)" />
      <path
         id="path4125"
         style="fill:#515151;fill-opacity:1;stroke:none;stroke-width:0.500001;stroke-linecap:round"
         d="m 420.00001,474.99999 v 1 a 4,4 0 0 0 -4,4 h -1 a 5,5 0 0 1 5,-5 z" />
    </g>
    <g
       id="hover-bottomleft"
       transform="translate(120)">
      <rect
         style="opacity:0.85;fill:none;stroke-width:2;stroke-linecap:round"
         id="rect4129"
         width="7"
         height="7"
         x="413"
         y="495" />
      <path
         style="fill:#404040;fill-opacity:1;stroke:none;stroke-width:0.500001;stroke-linecap:round"
         id="path4131"
         sodipodi:type="arc"
         sodipodi:cx="-420"
         sodipodi:cy="495"
         sodipodi:rx="5"
         sodipodi:ry="5"
         sodipodi:start="0"
         sodipodi:end="1.5707963"
         sodipodi:arc-type="slice"
         d="m -415,495 a 5,5 0 0 1 -5,5 v -5 z"
         transform="scale(-1,1)" />
      <path
         id="path4133"
         style="fill:url(#linearGradient4177);fill-opacity:1;stroke:none;stroke-width:0.500001;stroke-linecap:round"
         d="m 420,500 v -1 a 4,4 0 0 1 -4,-4 h -1 a 5,5 0 0 0 5,5 z" />
    </g>
    <g
       id="hover-bottomright"
       transform="translate(120)">
      <rect
         style="opacity:0.85;fill:none;stroke-width:2;stroke-linecap:round"
         id="rect4137"
         width="7"
         height="7"
         x="435"
         y="495" />
      <path
         style="fill:#404040;fill-opacity:1;stroke:none;stroke-width:0.500001;stroke-linecap:round"
         id="path4139"
         sodipodi:type="arc"
         sodipodi:cx="435"
         sodipodi:cy="495"
         sodipodi:rx="5"
         sodipodi:ry="5"
         sodipodi:start="0"
         sodipodi:end="1.5707963"
         sodipodi:arc-type="slice"
         d="m 440,495 a 5,5 0 0 1 -5,5 v -5 z" />
      <path
         id="path4141"
         style="fill:#3e3e3e;fill-opacity:1;stroke:none;stroke-width:0.500001;stroke-linecap:round"
         d="m 435.00001,500 v -1 a 4,4 0 0 0 4,-4 h 1 a 5,5 0 0 1 -5,5 z" />
    </g>
    <g
       id="hover-right"
       transform="translate(120)">
      <rect
         style="fill:#404040;fill-opacity:1;stroke:none;stroke-width:0.5;stroke-linecap:round"
         id="rect4145"
         width="15"
         height="5"
         x="480"
         y="-440"
         transform="rotate(90)" />
      <rect
         style="fill:#3e3e3e;fill-opacity:1;stroke:none;stroke-width:0.499998;stroke-linecap:round"
         id="rect4147"
         width="15"
         height="1"
         x="480"
         y="-440"
         transform="rotate(90)" />
      <rect
         style="fill:none;fill-opacity:1;stroke:none;stroke-width:0.5;stroke-linecap:round"
         id="rect4149"
         width="15"
         height="2"
         x="480"
         y="-442"
         transform="rotate(90)" />
    </g>
    <g
       id="hover-left"
       transform="translate(120)">
      <rect
         style="fill:#404040;fill-opacity:1;stroke:none;stroke-width:0.5;stroke-linecap:round"
         id="rect4153"
         width="15"
         height="5"
         x="-495"
         y="415"
         transform="rotate(-90)" />
      <rect
         style="fill:#515151;fill-opacity:1;stroke:none;stroke-width:0.499998;stroke-linecap:round"
         id="rect4155"
         width="15"
         height="1"
         x="-495"
         y="415"
         transform="rotate(-90)" />
      <rect
         style="fill:none;fill-opacity:1;stroke:none;stroke-width:0.5;stroke-linecap:round"
         id="rect4157"
         width="15"
         height="2"
         x="-495"
         y="413"
         transform="rotate(-90)" />
    </g>
    <g
       id="hover-top"
       transform="rotate(90,487.5,547.5)">
      <rect
         style="fill:#404040;fill-opacity:1;stroke:none;stroke-width:0.5;stroke-linecap:round"
         id="rect4161"
         width="15"
         height="5"
         x="-495"
         y="415"
         transform="rotate(-90)" />
      <rect
         style="fill:#515151;fill-opacity:1;stroke:none;stroke-width:0.499998;stroke-linecap:round"
         id="rect4163"
         width="15"
         height="1"
         x="-495"
         y="415"
         transform="rotate(-90)" />
      <rect
         style="fill:none;fill-opacity:1;stroke:none;stroke-width:0.5;stroke-linecap:round"
         id="rect4165"
         width="15"
         height="2"
         x="-495"
         y="413"
         transform="rotate(-90)" />
    </g>
    <g
       id="hover-bottom"
       transform="rotate(90,487.5,547.5)">
      <rect
         style="fill:#404040;fill-opacity:1;stroke:none;stroke-width:0.5;stroke-linecap:round"
         id="rect4169"
         width="15"
         height="5"
         x="480"
         y="-440"
         transform="rotate(90)" />
      <rect
         style="fill:#3e3e3e;fill-opacity:1;stroke:none;stroke-width:0.499998;stroke-linecap:round"
         id="rect4171"
         width="15"
         height="1"
         x="480"
         y="-440"
         transform="rotate(90)" />
      <rect
         style="fill:none;fill-opacity:1;stroke:none;stroke-width:0.5;stroke-linecap:round"
         id="rect4173"
         width="15"
         height="2"
         x="480"
         y="-442"
         transform="rotate(90)" />
    </g>
    <rect
       style="fill:#feae51;fill-opacity:1;stroke:none;stroke-width:0.5;stroke-linecap:round"
       id="attention-center"
       width="15"
       height="15"
       x="420"
       y="515" />
    <g
       id="attention-topright"
       transform="translate(0,35)">
      <rect
         style="opacity:0.85;fill:none;stroke-width:2;stroke-linecap:round"
         id="rect984"
         width="7"
         height="7"
         x="435"
         y="473" />
      <path
         style="fill:#feae51;fill-opacity:1;stroke:none;stroke-width:0.500001;stroke-linecap:round"
         id="path986"
         sodipodi:type="arc"
         sodipodi:cx="435"
         sodipodi:cy="-480"
         sodipodi:rx="5"
         sodipodi:ry="5"
         sodipodi:start="0"
         sodipodi:end="1.5707963"
         sodipodi:arc-type="slice"
         d="m 440,-480 a 5,5 0 0 1 -5,5 v -5 z"
         transform="scale(1,-1)" />
      <path
         id="path988"
         style="fill:url(#linearGradient1050);fill-opacity:1;stroke:none;stroke-width:0.500001;stroke-linecap:round"
         d="m 435.00001,474.99999 v 1 a 4,4 0 0 1 4,4 h 1 a 5,5 0 0 0 -5,-5 z" />
    </g>
    <g
       id="attention-topleft"
       transform="translate(0,35)">
      <rect
         style="opacity:0.85;fill:none;stroke-width:2;stroke-linecap:round"
         id="rect992"
         width="7"
         height="7"
         x="413"
         y="473" />
      <path
         style="fill:#feae51;fill-opacity:1;stroke:none;stroke-width:0.500001;stroke-linecap:round"
         id="path994"
         sodipodi:type="arc"
         sodipodi:cx="-420"
         sodipodi:cy="-480"
         sodipodi:rx="5"
         sodipodi:ry="5"
         sodipodi:start="0"
         sodipodi:end="1.5707963"
         sodipodi:arc-type="slice"
         d="m -415,-480 a 5,5 0 0 1 -5,5 v -5 z"
         transform="scale(-1)" />
      <path
         id="path996"
         style="fill:#ffd3ad;fill-opacity:1;stroke:none;stroke-width:0.500001;stroke-linecap:round"
         d="m 420.00001,474.99999 v 1 a 4,4 0 0 0 -4,4 h -1 a 5,5 0 0 1 5,-5 z" />
    </g>
    <g
       id="attention-bottomleft"
       transform="translate(0,35)">
      <rect
         style="opacity:0.85;fill:none;stroke-width:2;stroke-linecap:round"
         id="rect1000"
         width="7"
         height="7"
         x="413"
         y="495" />
      <path
         style="fill:#feae51;fill-opacity:1;stroke:none;stroke-width:0.500001;stroke-linecap:round"
         id="path1002"
         sodipodi:type="arc"
         sodipodi:cx="-420"
         sodipodi:cy="495"
         sodipodi:rx="5"
         sodipodi:ry="5"
         sodipodi:start="0"
         sodipodi:end="1.5707963"
         sodipodi:arc-type="slice"
         d="m -415,495 a 5,5 0 0 1 -5,5 v -5 z"
         transform="scale(-1,1)" />
      <path
         id="path1004"
         style="fill:url(#linearGradient1048);fill-opacity:1;stroke:none;stroke-width:0.500001;stroke-linecap:round"
         d="m 420,500 v -1 a 4,4 0 0 1 -4,-4 h -1 a 5,5 0 0 0 5,5 z" />
    </g>
    <g
       id="attention-bottomright"
       transform="translate(0,35)">
      <rect
         style="opacity:0.85;fill:none;stroke-width:2;stroke-linecap:round"
         id="rect1008"
         width="7"
         height="7"
         x="435"
         y="495" />
      <path
         style="fill:#feae51;fill-opacity:1;stroke:none;stroke-width:0.500001;stroke-linecap:round"
         id="path1010"
         sodipodi:type="arc"
         sodipodi:cx="435"
         sodipodi:cy="495"
         sodipodi:rx="5"
         sodipodi:ry="5"
         sodipodi:start="0"
         sodipodi:end="1.5707963"
         sodipodi:arc-type="slice"
         d="m 440,495 a 5,5 0 0 1 -5,5 v -5 z" />
      <path
         id="path1012"
         style="fill:#734423;fill-opacity:1;stroke:none;stroke-width:0.500001;stroke-linecap:round"
         d="m 435.00001,500 v -1 a 4,4 0 0 0 4,-4 h 1 a 5,5 0 0 1 -5,5 z" />
    </g>
    <g
       id="attention-right"
       transform="translate(0,35)">
      <rect
         style="fill:#feae51;fill-opacity:1;stroke:none;stroke-width:0.5;stroke-linecap:round"
         id="rect1016"
         width="15"
         height="5"
         x="480"
         y="-440"
         transform="rotate(90)" />
      <rect
         style="fill:#734423;fill-opacity:1;stroke:none;stroke-width:0.499998;stroke-linecap:round"
         id="rect1018"
         width="15"
         height="1"
         x="480"
         y="-440"
         transform="rotate(90)" />
      <rect
         style="fill:none;fill-opacity:1;stroke:none;stroke-width:0.5;stroke-linecap:round"
         id="rect1020"
         width="15"
         height="2"
         x="480"
         y="-442"
         transform="rotate(90)" />
    </g>
    <g
       id="attention-left"
       transform="translate(0,35)">
      <rect
         style="fill:#feae51;fill-opacity:1;stroke:none;stroke-width:0.5;stroke-linecap:round"
         id="rect1024"
         width="15"
         height="5"
         x="-495"
         y="415"
         transform="rotate(-90)" />
      <rect
         style="fill:#ffd3ad;fill-opacity:1;stroke:none;stroke-width:0.499998;stroke-linecap:round"
         id="rect1026"
         width="15"
         height="1"
         x="-495"
         y="415"
         transform="rotate(-90)" />
      <rect
         style="fill:none;fill-opacity:1;stroke:none;stroke-width:0.5;stroke-linecap:round"
         id="rect1028"
         width="15"
         height="2"
         x="-495"
         y="413"
         transform="rotate(-90)" />
    </g>
    <g
       id="attention-top"
       transform="rotate(90,410,505)">
      <rect
         style="fill:#feae51;fill-opacity:1;stroke:none;stroke-width:0.5;stroke-linecap:round"
         id="rect1032"
         width="15"
         height="5"
         x="-495"
         y="415"
         transform="rotate(-90)" />
      <rect
         style="fill:#ffd3ad;fill-opacity:1;stroke:none;stroke-width:0.499998;stroke-linecap:round"
         id="rect1034"
         width="15"
         height="1"
         x="-495"
         y="415"
         transform="rotate(-90)" />
      <rect
         style="fill:none;fill-opacity:1;stroke:none;stroke-width:0.5;stroke-linecap:round"
         id="rect1036"
         width="15"
         height="2"
         x="-495"
         y="413"
         transform="rotate(-90)" />
    </g>
    <g
       id="attention-bottom"
       transform="rotate(90,410,505)">
      <rect
         style="fill:#feae51;fill-opacity:1;stroke:none;stroke-width:0.5;stroke-linecap:round"
         id="rect1040"
         width="15"
         height="5"
         x="480"
         y="-440"
         transform="rotate(90)" />
      <rect
         style="fill:#734423;fill-opacity:1;stroke:none;stroke-width:0.499998;stroke-linecap:round"
         id="rect1042"
         width="15"
         height="1"
         x="480"
         y="-440"
         transform="rotate(90)" />
      <rect
         style="fill:none;fill-opacity:1;stroke:none;stroke-width:0.5;stroke-linecap:round"
         id="rect1044"
         width="15"
         height="2"
         x="480"
         y="-442"
         transform="rotate(90)" />
    </g>
    <rect
       style="fill:#3ab570;fill-opacity:1;stroke:none;stroke-width:0.5;stroke-linecap:round"
       id="progress-center"
       width="15"
       height="15"
       x="460"
       y="515" />
    <g
       id="progress-topright"
       transform="translate(40,35)">
      <rect
         style="opacity:0.85;fill:none;stroke-width:2;stroke-linecap:round"
         id="rect3680"
         width="7"
         height="7"
         x="435"
         y="473" />
      <path
         style="fill:#3ab570;fill-opacity:1;stroke:none;stroke-width:0.500001;stroke-linecap:round"
         id="path3682"
         sodipodi:type="arc"
         sodipodi:cx="435"
         sodipodi:cy="-480"
         sodipodi:rx="5"
         sodipodi:ry="5"
         sodipodi:start="0"
         sodipodi:end="1.5707963"
         sodipodi:arc-type="slice"
         d="m 440,-480 a 5,5 0 0 1 -5,5 v -5 z"
         transform="scale(1,-1)" />
      <path
         id="path3684"
         style="fill:url(#linearGradient3746);fill-opacity:1;stroke:none;stroke-width:0.500001;stroke-linecap:round"
         d="m 435.00001,474.99999 v 1 a 4,4 0 0 1 4,4 h 1 a 5,5 0 0 0 -5,-5 z" />
    </g>
    <g
       id="progress-topleft"
       transform="translate(40,35)">
      <rect
         style="opacity:0.85;fill:none;stroke-width:2;stroke-linecap:round"
         id="rect3688"
         width="7"
         height="7"
         x="413"
         y="473" />
      <path
         style="fill:#3ab570;fill-opacity:1;stroke:none;stroke-width:0.500001;stroke-linecap:round"
         id="path3690"
         sodipodi:type="arc"
         sodipodi:cx="-420"
         sodipodi:cy="-480"
         sodipodi:rx="5"
         sodipodi:ry="5"
         sodipodi:start="0"
         sodipodi:end="1.5707963"
         sodipodi:arc-type="slice"
         d="m -415,-480 a 5,5 0 0 1 -5,5 v -5 z"
         transform="scale(-1)" />
      <path
         id="path3692"
         style="fill:#adffc3;fill-opacity:1;stroke:none;stroke-width:0.500001;stroke-linecap:round"
         d="m 420.00001,474.99999 v 1 a 4,4 0 0 0 -4,4 h -1 a 5,5 0 0 1 5,-5 z" />
    </g>
    <g
       id="progress-bottomleft"
       transform="translate(40,35)">
      <rect
         style="opacity:0.85;fill:none;stroke-width:2;stroke-linecap:round"
         id="rect3696"
         width="7"
         height="7"
         x="413"
         y="495" />
      <path
         style="fill:#3ab570;fill-opacity:1;stroke:none;stroke-width:0.500001;stroke-linecap:round"
         id="path3698"
         sodipodi:type="arc"
         sodipodi:cx="-420"
         sodipodi:cy="495"
         sodipodi:rx="5"
         sodipodi:ry="5"
         sodipodi:start="0"
         sodipodi:end="1.5707963"
         sodipodi:arc-type="slice"
         d="m -415,495 a 5,5 0 0 1 -5,5 v -5 z"
         transform="scale(-1,1)" />
      <path
         id="path3700"
         style="fill:url(#linearGradient3744);fill-opacity:1;stroke:none;stroke-width:0.500001;stroke-linecap:round"
         d="m 420,500 v -1 a 4,4 0 0 1 -4,-4 h -1 a 5,5 0 0 0 5,5 z" />
    </g>
    <g
       id="progress-bottomright"
       transform="translate(40,35)">
      <rect
         style="opacity:0.85;fill:none;stroke-width:2;stroke-linecap:round"
         id="rect3704"
         width="7"
         height="7"
         x="435"
         y="495" />
      <path
         style="fill:#3ab570;fill-opacity:1;stroke:none;stroke-width:0.500001;stroke-linecap:round"
         id="path3706"
         sodipodi:type="arc"
         sodipodi:cx="435"
         sodipodi:cy="495"
         sodipodi:rx="5"
         sodipodi:ry="5"
         sodipodi:start="0"
         sodipodi:end="1.5707963"
         sodipodi:arc-type="slice"
         d="m 440,495 a 5,5 0 0 1 -5,5 v -5 z" />
      <path
         id="path3708"
         style="fill:#23732e;fill-opacity:1;stroke:none;stroke-width:0.500001;stroke-linecap:round"
         d="m 435.00001,500 v -1 a 4,4 0 0 0 4,-4 h 1 a 5,5 0 0 1 -5,5 z" />
    </g>
    <g
       id="progress-right"
       transform="translate(40,35)">
      <rect
         style="fill:#3ab570;fill-opacity:1;stroke:none;stroke-width:0.5;stroke-linecap:round"
         id="rect3712"
         width="15"
         height="5"
         x="480"
         y="-440"
         transform="rotate(90)" />
      <rect
         style="fill:#23732e;fill-opacity:1;stroke:none;stroke-width:0.499998;stroke-linecap:round"
         id="rect3714"
         width="15"
         height="1"
         x="480"
         y="-440"
         transform="rotate(90)" />
      <rect
         style="fill:none;fill-opacity:1;stroke:none;stroke-width:0.5;stroke-linecap:round"
         id="rect3716"
         width="15"
         height="2"
         x="480"
         y="-442"
         transform="rotate(90)" />
    </g>
    <g
       id="progress-left"
       transform="translate(40,35)">
      <rect
         style="fill:#3ab570;fill-opacity:1;stroke:none;stroke-width:0.5;stroke-linecap:round"
         id="rect3720"
         width="15"
         height="5"
         x="-495"
         y="415"
         transform="rotate(-90)" />
      <rect
         style="fill:#adffc3;fill-opacity:1;stroke:none;stroke-width:0.499998;stroke-linecap:round"
         id="rect3722"
         width="15"
         height="1"
         x="-495"
         y="415"
         transform="rotate(-90)" />
      <rect
         style="fill:none;fill-opacity:1;stroke:none;stroke-width:0.5;stroke-linecap:round"
         id="rect3724"
         width="15"
         height="2"
         x="-495"
         y="413"
         transform="rotate(-90)" />
    </g>
    <g
       id="progress-top"
       transform="rotate(90,430,525)">
      <rect
         style="fill:#3ab570;fill-opacity:1;stroke:none;stroke-width:0.5;stroke-linecap:round"
         id="rect3728"
         width="15"
         height="5"
         x="-495"
         y="415"
         transform="rotate(-90)" />
      <rect
         style="fill:#adffc3;fill-opacity:1;stroke:none;stroke-width:0.499998;stroke-linecap:round"
         id="rect3730"
         width="15"
         height="1"
         x="-495"
         y="415"
         transform="rotate(-90)" />
      <rect
         style="fill:none;fill-opacity:1;stroke:none;stroke-width:0.5;stroke-linecap:round"
         id="rect3732"
         width="15"
         height="2"
         x="-495"
         y="413"
         transform="rotate(-90)" />
    </g>
    <g
       id="progress-bottom"
       transform="rotate(90,430,525)">
      <rect
         style="fill:#3ab570;fill-opacity:1;stroke:none;stroke-width:0.5;stroke-linecap:round"
         id="rect3736"
         width="15"
         height="5"
         x="480"
         y="-440"
         transform="rotate(90)" />
      <rect
         style="fill:#23732e;fill-opacity:1;stroke:none;stroke-width:0.499998;stroke-linecap:round"
         id="rect3738"
         width="15"
         height="1"
         x="480"
         y="-440"
         transform="rotate(90)" />
      <rect
         style="fill:none;fill-opacity:1;stroke:none;stroke-width:0.5;stroke-linecap:round"
         id="rect3740"
         width="15"
         height="2"
         x="480"
         y="-442"
         transform="rotate(90)" />
    </g>
    <g
       id="group-expander-bottom">
      <rect
         style="fill:none;fill-opacity:1;stroke:none;stroke-width:0.5;stroke-linecap:round"
         id="rect5649"
         width="15"
         height="15"
         x="505"
         y="515" />
      <circle
         style="opacity:1;fill:#f8f8f8;fill-opacity:1;stroke-width:1.99999;stroke-linecap:round"
         id="path6384"
         cx="512.5"
         cy="520.5"
         r="5.5" />
    </g>
  </g>
</svg>
