<?xml version="1.0" encoding="UTF-8" standalone="no"?>
<!-- Created with Inkscape (http://www.inkscape.org/) -->

<svg
   width="60"
   height="25.00001"
   viewBox="0 0 60 25.000011"
   version="1.1"
   id="svg17788"
   inkscape:version="1.3 (0e150ed6c4, 2023-07-21)"
   sodipodi:docname="viewitem.svg"
   xmlns:inkscape="http://www.inkscape.org/namespaces/inkscape"
   xmlns:sodipodi="http://sodipodi.sourceforge.net/DTD/sodipodi-0.dtd"
   xmlns:xlink="http://www.w3.org/1999/xlink"
   xmlns="http://www.w3.org/2000/svg"
   xmlns:svg="http://www.w3.org/2000/svg">
  <sodipodi:namedview
     id="namedview17790"
     pagecolor="#d1d1d1"
     bordercolor="#6b6b6b"
     borderopacity="1"
     inkscape:showpageshadow="0"
     inkscape:pageopacity="0"
     inkscape:pagecheckerboard="1"
     inkscape:deskcolor="#d1d1d1"
     inkscape:document-units="px"
     showgrid="true"
     shape-rendering="crispEdges"
     inkscape:zoom="22.288692"
     inkscape:cx="11.889437"
     inkscape:cy="-19.830683"
     inkscape:current-layer="layer1">
    <inkscape:grid
       type="xygrid"
       id="grid4318"
       originx="-609.99997"
       originy="160.00001"
       spacingy="1"
       spacingx="1"
       units="px"
       visible="true" />
  </sodipodi:namedview>
  <defs
     id="defs17785">
    <linearGradient
       inkscape:collect="always"
       xlink:href="#linearGradient3"
       id="linearGradient15"
       x1="40"
       y1="95"
       x2="35"
       y2="90"
       gradientUnits="userSpaceOnUse" />
    <linearGradient
       id="linearGradient3"
       inkscape:collect="always">
      <stop
         style="stop-color:#eb5229;stop-opacity:1;"
         offset="0"
         id="stop3" />
      <stop
         style="stop-color:#ff9174;stop-opacity:1;"
         offset="1"
         id="stop4" />
    </linearGradient>
    <linearGradient
       inkscape:collect="always"
       xlink:href="#linearGradient3"
       id="linearGradient17"
       x1="35"
       y1="90"
       x2="40"
       y2="95"
       gradientUnits="userSpaceOnUse" />
  </defs>
  <g
     inkscape:label="Layer 1"
     inkscape:groupmode="layer"
     id="layer1"
     transform="translate(-609.99997,160)">
    <rect
       style="fill:#fe7551;fill-opacity:1;stroke:none;stroke-width:0.5;stroke-linecap:round"
       id="selected-center"
       width="15"
       height="15"
       x="650"
       y="-155" />
    <g
       id="selected-top"
       transform="translate(399.99997,-775)">
      <rect
         style="opacity:1;fill:#fe7551;fill-opacity:1;stroke:none;stroke-width:0.5;stroke-linecap:round"
         id="rect9609"
         width="15"
         height="5"
         x="250"
         y="615" />
      <rect
         style="opacity:1;fill:#e56949;fill-opacity:1;stroke:none;stroke-width:0.499998;stroke-linecap:round"
         id="rect9611"
         width="15"
         height="1"
         x="250"
         y="615" />
    </g>
    <g
       id="selected-topright"
       transform="translate(399.99997,-775)">
      <path
         style="opacity:1;fill:#fe7551;fill-opacity:1;stroke:none;stroke-width:0.500001;stroke-linecap:round"
         id="path9615"
         sodipodi:type="arc"
         sodipodi:cx="265"
         sodipodi:cy="-620"
         sodipodi:rx="5"
         sodipodi:ry="5"
         sodipodi:start="0"
         sodipodi:end="1.5707963"
         sodipodi:arc-type="slice"
         d="m 270,-620 a 5,5 0 0 1 -5,5 v -5 z"
         transform="scale(1,-1)" />
      <path
         id="path9617"
         style="opacity:1;fill:#e56949;fill-opacity:1;stroke:none;stroke-width:0.500001;stroke-linecap:round"
         d="m 265,615 v 1 a 4,4 0 0 1 4,4 h 1 a 5,5 0 0 0 -5,-5 z" />
    </g>
    <g
       id="selected-topleft"
       transform="matrix(-1,0,0,1,914.99997,-775)">
      <path
         style="opacity:1;fill:#fe7551;fill-opacity:1;stroke:none;stroke-width:0.500001;stroke-linecap:round"
         id="path9621"
         sodipodi:type="arc"
         sodipodi:cx="265"
         sodipodi:cy="-620"
         sodipodi:rx="5"
         sodipodi:ry="5"
         sodipodi:start="0"
         sodipodi:end="1.5707963"
         sodipodi:arc-type="slice"
         d="m 270,-620 a 5,5 0 0 1 -5,5 v -5 z"
         transform="scale(1,-1)" />
      <path
         id="path9623"
         style="opacity:1;fill:#e56949;fill-opacity:1;stroke:none;stroke-width:0.500001;stroke-linecap:round"
         d="m 265,615 v 1 a 4,4 0 0 1 4,4 h 1 a 5,5 0 0 0 -5,-5 z" />
    </g>
    <g
       id="selected-right"
       transform="rotate(90,844.99998,439.99998)">
      <rect
         style="opacity:1;fill:#fe7551;fill-opacity:1;stroke:none;stroke-width:0.5;stroke-linecap:round"
         id="rect9627"
         width="15"
         height="5"
         x="250"
         y="615" />
      <rect
         style="opacity:1;fill:#e56949;fill-opacity:1;stroke:none;stroke-width:0.499998;stroke-linecap:round"
         id="rect9629"
         width="15"
         height="1"
         x="250"
         y="615" />
    </g>
    <g
       id="selected-bottomleft"
       transform="rotate(180,457.49999,240)">
      <path
         style="opacity:1;fill:#fe7551;fill-opacity:1;stroke:none;stroke-width:0.500001;stroke-linecap:round"
         id="path9633"
         sodipodi:type="arc"
         sodipodi:cx="265"
         sodipodi:cy="-620"
         sodipodi:rx="5"
         sodipodi:ry="5"
         sodipodi:start="0"
         sodipodi:end="1.5707963"
         sodipodi:arc-type="slice"
         d="m 270,-620 a 5,5 0 0 1 -5,5 v -5 z"
         transform="scale(1,-1)" />
      <path
         id="path9635"
         style="opacity:1;fill:#e56949;fill-opacity:1;stroke:none;stroke-width:0.500001;stroke-linecap:round"
         d="m 265,615 v 1 a 4,4 0 0 1 4,4 h 1 a 5,5 0 0 0 -5,-5 z" />
    </g>
    <g
       id="selected-bottomright"
       transform="matrix(1,0,0,-1,399.99997,480.00001)">
      <path
         style="opacity:1;fill:#fe7551;fill-opacity:1;stroke:none;stroke-width:0.500001;stroke-linecap:round"
         id="path9639"
         sodipodi:type="arc"
         sodipodi:cx="265"
         sodipodi:cy="-620"
         sodipodi:rx="5"
         sodipodi:ry="5"
         sodipodi:start="0"
         sodipodi:end="1.5707963"
         sodipodi:arc-type="slice"
         d="m 270,-620 a 5,5 0 0 1 -5,5 v -5 z"
         transform="scale(1,-1)" />
      <path
         id="path9641"
         style="opacity:1;fill:#e56949;fill-opacity:1;stroke:none;stroke-width:0.500001;stroke-linecap:round"
         d="m 265,615 v 1 a 4,4 0 0 1 4,4 h 1 a 5,5 0 0 0 -5,-5 z" />
    </g>
    <g
       id="selected-left"
       transform="rotate(-90,69.999989,40.000016)">
      <rect
         style="opacity:1;fill:#fe7551;fill-opacity:1;stroke:none;stroke-width:0.5;stroke-linecap:round"
         id="rect9645"
         width="15"
         height="5"
         x="250"
         y="615" />
      <rect
         style="opacity:1;fill:#e56949;fill-opacity:1;stroke:none;stroke-width:0.499998;stroke-linecap:round"
         id="rect9647"
         width="15"
         height="1"
         x="250"
         y="615" />
    </g>
    <g
       id="selected-bottom"
       transform="matrix(1,0,0,-1,399.99997,480.00001)">
      <rect
         style="opacity:1;fill:#fe7551;fill-opacity:1;stroke:none;stroke-width:0.5;stroke-linecap:round"
         id="rect9651"
         width="15"
         height="5"
         x="250"
         y="615" />
      <rect
         style="opacity:1;fill:#e56949;fill-opacity:1;stroke:none;stroke-width:0.499998;stroke-linecap:round"
         id="rect9653"
         width="15"
         height="1"
         x="250"
         y="615" />
    </g>
    <rect
       style="fill:#fe7551;fill-opacity:1;stroke-width:1;stroke-linecap:round;stroke-linejoin:round"
       id="hover-center"
       width="15"
       height="15"
       x="617.5"
       y="-184.99998" />
    <g
       id="hover-top"
       transform="translate(597.49994,-279.99998)">
      <rect
         style="fill:#fe7551;fill-opacity:1;stroke-width:1;stroke-linecap:round;stroke-linejoin:round"
         id="rect1012"
         width="15"
         height="5"
         x="20"
         y="90" />
      <rect
         style="fill:#ff9174;fill-opacity:1;stroke-width:0.999999;stroke-linecap:round;stroke-linejoin:round"
         id="rect1014"
         width="15"
         height="0.99999702"
         x="20"
         y="90" />
    </g>
    <g
       id="hover-topright"
       transform="translate(597.49994,-279.99998)">
      <path
         style="fill:#fe7551;fill-opacity:1;stroke-width:1;stroke-linecap:round;stroke-linejoin:round"
         id="path1150"
         sodipodi:type="arc"
         sodipodi:cx="35"
         sodipodi:cy="-95"
         sodipodi:rx="5"
         sodipodi:ry="5"
         sodipodi:start="0"
         sodipodi:end="1.5707963"
         sodipodi:arc-type="slice"
         d="m 40,-95 a 5,5 0 0 1 -5,5 v -5 z"
         transform="scale(1,-1)" />
      <path
         id="path1152"
         style="fill:url(#linearGradient15);fill-opacity:1;stroke-width:1;stroke-linecap:round;stroke-linejoin:round"
         d="m 35,89.999997 v 1 a 4,4.0000029 0 0 1 4,4 h 1 a 5,5 0 0 0 -5,-5 z" />
    </g>
    <g
       id="hover-bottom"
       transform="matrix(1,0,0,-1,597.49994,-74.999983)">
      <rect
         style="fill:#fe7551;fill-opacity:1;stroke-width:1;stroke-linecap:round;stroke-linejoin:round"
         id="rect7"
         width="15"
         height="5"
         x="20"
         y="90" />
      <rect
         style="fill:#eb5229;fill-opacity:1;stroke-width:0.999999;stroke-linecap:round;stroke-linejoin:round"
         id="rect8"
         width="15"
         height="0.99999702"
         x="20"
         y="90" />
    </g>
    <g
       id="hover-topleft"
       transform="matrix(-1,0,0,1,652.49994,-279.99998)">
      <path
         style="fill:#fe7551;fill-opacity:1;stroke-width:1;stroke-linecap:round;stroke-linejoin:round"
         id="path9"
         sodipodi:type="arc"
         sodipodi:cx="35"
         sodipodi:cy="-95"
         sodipodi:rx="5"
         sodipodi:ry="5"
         sodipodi:start="0"
         sodipodi:end="1.5707963"
         sodipodi:arc-type="slice"
         d="m 40,-95 a 5,5 0 0 1 -5,5 v -5 z"
         transform="scale(1,-1)" />
      <path
         id="path10"
         style="fill:#ff9174;fill-opacity:1;stroke-width:1;stroke-linecap:round;stroke-linejoin:round"
         d="m 35,89.999997 v 1 a 4,4.0000029 0 0 1 4,4 h 1 a 5,5 0 0 0 -5,-5 z" />
    </g>
    <g
       id="hover-bottomright"
       transform="matrix(1,0,0,-1,597.49994,-74.999983)">
      <path
         style="fill:#fe7551;fill-opacity:1;stroke-width:1;stroke-linecap:round;stroke-linejoin:round"
         id="path11"
         sodipodi:type="arc"
         sodipodi:cx="35"
         sodipodi:cy="-95"
         sodipodi:rx="5"
         sodipodi:ry="5"
         sodipodi:start="0"
         sodipodi:end="1.5707963"
         sodipodi:arc-type="slice"
         d="m 40,-95 a 5,5 0 0 1 -5,5 v -5 z"
         transform="scale(1,-1)" />
      <path
         id="path12"
         style="fill:#eb5229;fill-opacity:1;stroke-width:1;stroke-linecap:round;stroke-linejoin:round"
         d="m 35,89.999997 v 1 a 4,4.0000029 0 0 1 4,4 h 1 a 5,5 0 0 0 -5,-5 z" />
    </g>
    <g
       id="hover-bottomleft"
       transform="rotate(180,326.24996,-37.499992)">
      <path
         style="fill:#fe7551;fill-opacity:1;stroke-width:1;stroke-linecap:round;stroke-linejoin:round"
         id="path13"
         sodipodi:type="arc"
         sodipodi:cx="35"
         sodipodi:cy="-95"
         sodipodi:rx="5"
         sodipodi:ry="5"
         sodipodi:start="0"
         sodipodi:end="1.5707963"
         sodipodi:arc-type="slice"
         d="m 40,-95 a 5,5 0 0 1 -5,5 v -5 z"
         transform="scale(1,-1)" />
      <path
         id="path14"
         style="fill:url(#linearGradient17);fill-opacity:1;stroke-width:1;stroke-linecap:round;stroke-linejoin:round"
         d="m 35,89.999997 v 1 a 4,4.0000029 0 0 1 4,4 h 1 a 5,5 0 0 0 -5,-5 z" />
    </g>
    <use
       x="0"
       y="0"
       xlink:href="#hover-top"
       id="hover-left"
       transform="rotate(-90,624.99994,-177.49998)" />
    <use
       x="0"
       y="0"
       xlink:href="#hover-bottom"
       id="hover-right"
       transform="rotate(-90,624.99994,-177.49998)" />
  </g>
</svg>
