<?xml version="1.0" encoding="UTF-8" standalone="no"?>
<!-- Created with Inkscape (http://www.inkscape.org/) -->

<svg
   inkscape:export-ydpi="96"
   inkscape:export-xdpi="96"
   inkscape:export-filename="sddm1440.png"
   sodipodi:docname="sddm background.svg"
   inkscape:version="1.3 (0e150ed6c4, 2023-07-21)"
   id="svg8"
   version="1.1"
   viewBox="0 0 2560 1440"
   height="1440"
   width="2560"
   xmlns:inkscape="http://www.inkscape.org/namespaces/inkscape"
   xmlns:sodipodi="http://sodipodi.sourceforge.net/DTD/sodipodi-0.dtd"
   xmlns:xlink="http://www.w3.org/1999/xlink"
   xmlns="http://www.w3.org/2000/svg"
   xmlns:svg="http://www.w3.org/2000/svg"
   xmlns:rdf="http://www.w3.org/1999/02/22-rdf-syntax-ns#"
   xmlns:cc="http://creativecommons.org/ns#"
   xmlns:dc="http://purl.org/dc/elements/1.1/">
  <sodipodi:namedview
     id="base"
     pagecolor="#787878"
     bordercolor="#666666"
     borderopacity="1.0"
     inkscape:pageopacity="0.0"
     inkscape:pageshadow="2"
     inkscape:zoom="0.23832631"
     inkscape:cx="1648.9997"
     inkscape:cy="316.79256"
     inkscape:document-units="px"
     inkscape:current-layer="layer1"
     showgrid="false"
     units="px"
     inkscape:showpageshadow="false"
     inkscape:pagecheckerboard="true"
     inkscape:snap-page="true"
     inkscape:snap-global="true"
     inkscape:deskcolor="#d1d1d1"
     inkscape:window-width="1920"
     inkscape:window-height="982"
     inkscape:window-x="0"
     inkscape:window-y="0"
     inkscape:window-maximized="1"
     showguides="true">
    <sodipodi:guide
       position="1847.4819,1080.8322"
       orientation="0,-1"
       id="guide47932"
       inkscape:locked="false" />
  </sodipodi:namedview>
  <defs
     id="defs2">
    <inkscape:path-effect
       effect="spiro"
       id="path-effect26619"
       is_visible="true"
       lpeversion="0" />
    <inkscape:path-effect
       effect="spiro"
       id="path-effect26615"
       is_visible="true"
       lpeversion="0" />
    <inkscape:path-effect
       effect="spiro"
       id="path-effect26611"
       is_visible="true"
       lpeversion="0" />
    <inkscape:path-effect
       effect="spiro"
       id="path-effect26607"
       is_visible="true"
       lpeversion="0" />
    <inkscape:path-effect
       effect="spiro"
       id="path-effect26603"
       is_visible="true"
       lpeversion="0" />
    <inkscape:path-effect
       effect="spiro"
       id="path-effect26599"
       is_visible="true"
       lpeversion="0" />
    <inkscape:path-effect
       effect="spiro"
       id="path-effect3962"
       is_visible="true"
       lpeversion="0" />
    <inkscape:path-effect
       effect="spiro"
       id="path-effect3958"
       is_visible="true"
       lpeversion="0" />
    <inkscape:path-effect
       effect="spiro"
       id="path-effect3954"
       is_visible="true"
       lpeversion="0" />
    <inkscape:path-effect
       effect="spiro"
       id="path-effect3950"
       is_visible="true"
       lpeversion="0" />
    <inkscape:path-effect
       effect="spiro"
       id="path-effect3946"
       is_visible="true"
       lpeversion="0" />
    <inkscape:path-effect
       effect="spiro"
       id="path-effect3942"
       is_visible="true"
       lpeversion="0" />
    <inkscape:path-effect
       effect="spiro"
       id="path-effect3938"
       is_visible="true"
       lpeversion="0" />
    <inkscape:path-effect
       effect="spiro"
       id="path-effect3934"
       is_visible="true"
       lpeversion="0" />
    <inkscape:path-effect
       effect="spiro"
       id="path-effect3930"
       is_visible="true"
       lpeversion="0" />
    <inkscape:path-effect
       effect="spiro"
       id="path-effect3191"
       is_visible="true"
       lpeversion="0" />
    <inkscape:path-effect
       effect="spiro"
       id="path-effect3187"
       is_visible="true"
       lpeversion="0" />
    <inkscape:path-effect
       effect="spiro"
       id="path-effect3183"
       is_visible="true"
       lpeversion="0" />
    <inkscape:path-effect
       effect="spiro"
       id="path-effect3179"
       is_visible="true"
       lpeversion="0" />
    <inkscape:path-effect
       effect="spiro"
       id="path-effect3175"
       is_visible="true"
       lpeversion="0" />
    <clipPath
       clipPathUnits="userSpaceOnUse"
       id="clipPath33083">
      <rect
         inkscape:export-ydpi="96"
         inkscape:export-xdpi="96"
         y="132.72884"
         x="76.888893"
         height="882.41888"
         width="1777.2168"
         id="rect33085"
         style="opacity:1;fill:#426c98;fill-opacity:1;stroke:none;stroke-width:4;stroke-linecap:round;stroke-miterlimit:4;stroke-dasharray:none;stroke-opacity:1" />
    </clipPath>
    <linearGradient
       inkscape:collect="always"
       xlink:href="#linearGradient38883"
       id="linearGradient38885"
       x1="423.14819"
       y1="1118.6178"
       x2="1780.6458"
       y2="49.42601"
       gradientUnits="userSpaceOnUse"
       gradientTransform="translate(0.45419743,6.5858627)" />
    <linearGradient
       inkscape:collect="always"
       id="linearGradient38883">
      <stop
         style="stop-color:#42648d;stop-opacity:1"
         offset="0"
         id="stop38879" />
      <stop
         id="stop38887"
         offset="0.41139674"
         style="stop-color:#4674a4;stop-opacity:1" />
      <stop
         style="stop-color:#446c98;stop-opacity:1"
         offset="0.55800021"
         id="stop38889" />
      <stop
         style="stop-color:#40658f;stop-opacity:1"
         offset="1"
         id="stop38881" />
    </linearGradient>
  </defs>
  <metadata
     id="metadata5">
    <rdf:RDF>
      <cc:Work
         rdf:about="">
        <dc:format>image/svg+xml</dc:format>
        <dc:type
           rdf:resource="http://purl.org/dc/dcmitype/StillImage" />
      </cc:Work>
    </rdf:RDF>
  </metadata>
  <g
     inkscape:label="Layer 1"
     inkscape:groupmode="layer"
     id="layer1"
     transform="matrix(1.3333333,0,0,1.3333333,-0.60559575,-65.474004)"
     style="display:inline">
    <rect
       style="display:inline;fill:url(#linearGradient38885);fill-opacity:1;stroke:none;stroke-width:4;stroke-linecap:round;stroke-miterlimit:4;stroke-dasharray:none;stroke-opacity:1"
       id="rect31"
       width="1920"
       height="1080"
       x="0.45419681"
       y="49.10553"
       inkscape:export-xdpi="96"
       inkscape:export-ydpi="96" />
    <path
       id="rect815"
       style="display:inline;fill:#000000;fill-opacity:1;stroke:none;stroke-width:4;stroke-linecap:round;stroke-miterlimit:4;stroke-dasharray:none;stroke-opacity:1;opacity:0.06"
       d="M 0.45419682 49.105504 L 0.45419682 1129.1055 L 1920.4542 1129.1055 L 1920.4542 999.58844 L 16.653904 50.905797 L 12.596287 49.105504 L 0.45419682 49.105504 z " />
  </g>
  <g
     inkscape:groupmode="layer"
     id="layer3"
     inkscape:label="Layer 3"
     style="display:inline">
    <g
       transform="matrix(0.43208402,0,0,0.43208402,2264.7574,-721.80453)"
       id="g1258"
       style="display:inline;stroke:#6e88a3;stroke-opacity:1"
       inkscape:export-xdpi="96"
       inkscape:export-ydpi="96">
      <path
         inkscape:connector-curvature="0"
         id="path1032"
         d="m -89.02065,1995.9166 -130.47266,75.3281 195.20704,112.7031 195.20898,-112.7031 -130.47266,-75.3281 -32.36914,18.6875 98.10547,56.6406 -130.47265,75.3281 -130.47071,-75.3281 98.10352,-56.6406 z"
         style="opacity:1;fill:#ffffff;fill-opacity:1;stroke:#6e88a3;stroke-width:5;stroke-linecap:round;stroke-linejoin:round;stroke-miterlimit:4;stroke-dasharray:none;stroke-opacity:1" />
      <path
         inkscape:connector-curvature="0"
         id="path1082"
         d="m -24.28627,2221.3228 v -37.375 l -195.20704,-112.7031 v 37.375 z"
         style="fill:#b1c7de;fill-opacity:1;stroke:#6e88a3;stroke-width:5;stroke-linecap:butt;stroke-linejoin:round;stroke-miterlimit:4;stroke-dasharray:none;stroke-opacity:1" />
      <path
         inkscape:connector-curvature="0"
         style="fill:#d7e2ee;fill-opacity:1;stroke:#6e88a3;stroke-width:5;stroke-linecap:butt;stroke-linejoin:round;stroke-miterlimit:4;stroke-dasharray:none;stroke-opacity:1"
         d="m -56.65346,2014.6041 -32.36719,18.6875 -6.29687,3.6347 -59.43946,34.3184 32.36719,18.6875 33.36914,-19.2656 0.91602,39.0605 32.89453,18.9902 -1.44336,-76.7382 z m -29.67383,170.8984 0.83984,35.8359 -31.45507,17.1914 32.53711,18.7852 31.2871,-17.2871 -0.67187,-35.7383 z m -163.78125,50.8945 v 68.6367 7.2696 37.375 l 32.36719,-18.6875 67.17969,-37.1192 -32.89454,-18.9921 -34.28515,18.7363 v -38.5313 z"
         id="path1084" />
      <path
         inkscape:connector-curvature="0"
         id="path1113"
         d="m -89.02065,2070.6666 -32.36719,18.6875 0.0371,1.1777 33.2461,19.1953 z m -29.95508,95.9863 1.12305,36 32.36719,18.6875 -0.83985,-35.8359 z"
         style="fill:#b1c7de;fill-opacity:1;stroke:#6e88a3;stroke-width:5;stroke-linecap:butt;stroke-linejoin:round;stroke-miterlimit:4;stroke-dasharray:none;stroke-opacity:1" />
      <path
         style="fill:#d7e2ee;fill-opacity:1;stroke:#6e88a3;stroke-width:5;stroke-linecap:butt;stroke-linejoin:round;stroke-miterlimit:4;stroke-dasharray:none;stroke-opacity:1"
         d="m -24.28627,2221.3228 v -37.375 l 195.20704,-112.7031 v 37.375 z"
         id="path1119"
         inkscape:connector-curvature="0" />
      <path
         inkscape:connector-curvature="0"
         style="fill:#b1c7de;fill-opacity:1;stroke:#6e88a3;stroke-width:5;stroke-linecap:butt;stroke-linejoin:round;stroke-miterlimit:4;stroke-dasharray:none;stroke-opacity:1"
         d="m 8.08091,2014.6041 v 37.375 l -1.44336,76.7382 32.89454,-18.9902 0.91601,-39.0605 33.36914,19.2656 32.36719,-18.6875 -59.43945,-34.3184 -6.29688,-3.6347 z m 29.67383,170.8984 -32.53711,18.7871 -0.67187,35.7363 v 0 l 31.28515,17.2871 32.53907,-18.7852 -31.45508,-17.1894 z m 163.7793,50.8945 -32.36719,18.6875 v 38.5313 l -34.28516,-18.7363 -32.89257,18.9921 67.17773,37.1192 32.36914,18.6875 -0.002,-37.375 0.002,-7.2696 z"
         id="path1130" />
      <path
         inkscape:connector-curvature="0"
         style="fill:#e1e1e1;fill-opacity:0.992157;stroke:#6e88a3;stroke-width:5;stroke-linecap:butt;stroke-linejoin:round;stroke-miterlimit:4;stroke-dasharray:none;stroke-opacity:1"
         d="m 40.4481,2070.6666 32.36719,18.6875 -0.0371,1.1777 -33.2461,19.1953 z m 29.95508,95.9863 -1.12305,36 -32.36719,18.6875 0.83985,-35.8359 z"
         id="path1132" />
      <path
         style="opacity:1;fill:#b1c7de;fill-opacity:1;stroke:#6e88a3;stroke-width:5;stroke-linecap:round;stroke-linejoin:round;stroke-miterlimit:4;stroke-dasharray:none;stroke-opacity:1"
         d="m -217.74167,2443.1144 130.472381,75.3286 2.27e-4,-225.4058 -195.208238,-112.7044 2.8e-4,150.6567 32.36842,18.6888 -5.3e-4,-113.2822 130.47237,75.3286 -6.9e-4,150.655 -98.10396,-56.6398 z"
         id="path1143"
         inkscape:connector-curvature="0" />
      <path
         style="fill:#d7e2ee;fill-opacity:1;stroke:#6e88a3;stroke-width:5;stroke-linecap:butt;stroke-linejoin:round;stroke-miterlimit:4;stroke-dasharray:none;stroke-opacity:1"
         d="m -54.901362,2274.3497 -32.3677,18.6875 -2.27e-4,225.4058 32.367699,-18.6875 z"
         id="path1145"
         inkscape:connector-curvature="0" />
      <path
         inkscape:connector-curvature="0"
         style="fill:#ffffff;fill-opacity:1;stroke:#6e88a3;stroke-width:5;stroke-linecap:butt;stroke-linejoin:round;stroke-miterlimit:4;stroke-dasharray:none;stroke-opacity:1"
         d="m -24.2882,2289.9673 v 0 l -30.61328,18.4473 v 37.5722 l 30.61328,-18.6465 h 0.002 l 30.61523,18.6465 -0.002,-37.5722 -30.61328,-18.4473 z m -95.34961,57.4668 -65.73632,39.6192 -32.36719,18.6875 32.36719,18.6855 6.29687,3.6367 59.43945,34.3165 v -37.375 l -33.36914,-19.2657 33.36914,-20.3222 z m 190.70313,0 -0.002,37.9825 33.36914,20.3222 -33.36914,19.2657 v 37.375 l 59.4414,-34.3165 6.29492,-3.6367 32.36914,-18.6855 -32.36914,-18.6875 z"
         id="path1147" />
      <path
         style="fill:#d7e2ee;fill-opacity:1;stroke:#6e88a3;stroke-width:5;stroke-linecap:butt;stroke-linejoin:round;stroke-miterlimit:4;stroke-dasharray:none;stroke-opacity:1"
         d="m -153.00627,2405.7394 32.36745,18.6871 1.00136,-0.621 5.7e-4,-38.3896 z m 98.104116,-22.0513 30.615389,-18.9725 2.55e-4,-37.3746 -30.614875,18.6453 z"
         id="path1149"
         inkscape:connector-curvature="0" />
      <path
         inkscape:connector-curvature="0"
         id="path1151"
         d="m -54.901362,2274.3497 -32.3677,18.6875 -195.207268,-112.7027 32.3677,-18.6875 z"
         style="fill:#ffffff;fill-opacity:1;stroke:#6e88a3;stroke-width:5;stroke-linecap:butt;stroke-linejoin:round;stroke-miterlimit:4;stroke-dasharray:none;stroke-opacity:1" />
      <path
         id="path1155"
         d="m -217.74064,2293.6162 2.5e-4,-37.3745 1.03847,-0.5568 33.24667,19.1943 z m 68.14903,-73.935 31.73844,-17.0274 32.367445,18.687 -31.454725,17.1907 z"
         style="fill:#ffffff;fill-opacity:1;stroke:#6e88a3;stroke-width:5;stroke-linecap:butt;stroke-linejoin:round;stroke-miterlimit:4;stroke-dasharray:none;stroke-opacity:1"
         inkscape:connector-curvature="0" />
      <path
         style="opacity:1;fill:#d7e2ee;fill-opacity:1;stroke:#6e88a3;stroke-width:5;stroke-linecap:round;stroke-linejoin:round;stroke-miterlimit:4;stroke-dasharray:none;stroke-opacity:1"
         d="m 233.9025,2330.9913 2.8e-4,-150.6567 -195.20727,112.7027 -7.43e-4,225.4075 130.472383,-75.3286 7.2e-4,-37.3762 -98.104937,56.6415 2.77e-4,-150.6567 130.4714,-75.3269 4.4e-4,113.2804 z"
         id="path1159"
         inkscape:connector-curvature="0" />
      <path
         style="fill:#ffffff;fill-opacity:1;stroke:#6e88a3;stroke-width:5;stroke-linecap:butt;stroke-linejoin:round;stroke-miterlimit:4;stroke-dasharray:none;stroke-opacity:1"
         d="m 6.3278107,2274.3498 32.3676993,18.6875 195.20727,-112.7027 -32.3677,-18.6875 z"
         id="path1161"
         inkscape:connector-curvature="0" />
      <path
         style="fill:#ffffff;fill-opacity:1;stroke:#6e88a3;stroke-width:5;stroke-linecap:butt;stroke-linejoin:round;stroke-miterlimit:4;stroke-dasharray:none;stroke-opacity:1"
         d="m 169.1671,2293.6163 -2.6e-4,-37.3746 -1.03847,-0.5567 -33.24666,19.1943 z m -68.14904,-73.935 -31.738437,-17.0274 -32.367444,18.687 31.454724,17.1906 z"
         id="path1165"
         inkscape:connector-curvature="0" />
      <path
         inkscape:connector-curvature="0"
         id="path1167"
         d="m 6.3278107,2274.3498 32.3676993,18.6875 2.28e-4,225.4058 -32.3676996,-18.6875 z"
         style="fill:#b1c7de;fill-opacity:1;stroke:#6e88a3;stroke-width:5;stroke-linecap:butt;stroke-linejoin:round;stroke-miterlimit:4;stroke-dasharray:none;stroke-opacity:1" />
      <path
         id="path1171"
         d="m 104.43272,2405.7395 -32.367443,18.6871 -1.001368,-0.621 -5.67e-4,-38.3896 z m -98.1041121,-22.0513 -30.6153899,-18.9726 -2.54e-4,-37.3745 30.6148744,18.6453 z"
         style="fill:#b1c7de;fill-opacity:1;stroke:#6e88a3;stroke-width:5;stroke-linecap:butt;stroke-linejoin:round;stroke-miterlimit:4;stroke-dasharray:none;stroke-opacity:1"
         inkscape:connector-curvature="0" />
    </g>
  </g>
</svg>
